<?xml version="1.0" standalone="no"?><!DOCTYPE svg PUBLIC "-//W3C//DTD SVG 1.1//EN" "http://www.w3.org/Graphics/SVG/1.1/DTD/svg11.dtd"><svg t="1690973943220" class="icon" viewBox="0 0 1024 1024" version="1.1" xmlns="http://www.w3.org/2000/svg" p-id="28455" xmlns:xlink="http://www.w3.org/1999/xlink" width="200" height="200"><path d="M853.333333 0h-512C273.066667 0 213.333333 59.733333 213.333333 128v597.333333c0 68.266667 59.733333 128 128 128h512c68.266667 0 128-59.733333 128-128v-597.333333C981.333333 59.733333 921.6 0 853.333333 0z m42.666667 725.333333c0 25.6-17.066667 42.666667-42.666667 42.666667h-512c-25.6 0-42.666667-17.066667-42.666666-42.666667v-597.333333c0-25.6 17.066667-42.666667 42.666666-42.666667h512c25.6 0 42.666667 17.066667 42.666667 42.666667v597.333333zM768 512h-341.333333c-25.6 0-42.666667 17.066667-42.666667 42.666667s17.066667 42.666667 42.666667 42.666666h341.333333c25.6 0 42.666667-17.066667 42.666667-42.666666S793.6 512 768 512z m-256-85.333333h170.666667c25.6 0 42.666667-17.066667 42.666666-42.666667S708.266667 341.333333 682.666667 341.333333h-170.666667c-25.6 0-42.666667 17.066667-42.666667 42.666667s17.066667 42.666667 42.666667 42.666667z m341.333333 512h-682.666666c-25.6 0-42.666667-17.066667-42.666667-42.666667v-682.666667C128 187.733333 110.933333 170.666667 85.333333 170.666667s-42.666667 17.066667-42.666666 42.666666v682.666667c0 68.266667 59.733333 128 128 128h682.666666c25.6 0 42.666667-17.066667 42.666667-42.666667s-17.066667-42.666667-42.666667-42.666666z" p-id="28456"></path></svg>