<svg width="24" height="24" viewBox="0 0 24 24" fill="none" xmlns="http://www.w3.org/2000/svg">
<rect width="24" height="24" rx="2" fill="#F8FCFF"/>
<path fill-rule="evenodd" clip-rule="evenodd" d="M5.22567 13.7913C5.22567 13.7913 5.22566 13.7913 5.22567 13.7913L8.52606 10.4909L9.94027 11.9051L6.63988 15.2055C6.08717 15.7582 6.07257 16.7041 6.68716 17.3187M5.22567 13.7913C3.85638 15.1606 3.91331 17.3733 5.27294 18.7329ZM5.27294 18.7329C6.63257 20.0926 8.84526 20.1495 10.2145 18.7802ZM10.2145 18.7802C10.2145 18.7802 10.2145 18.7802 10.2145 18.7802ZM6.68716 17.3187C7.30173 17.9333 8.2476 17.9187 8.80031 17.366L11.6657 14.5006L13.0799 15.9148L10.2145 18.7802" fill="#447DFD"/>
<path fill-rule="evenodd" clip-rule="evenodd" d="M15.2 6.63372L12.3346 9.49912L10.9204 8.0849L13.7858 5.2195C15.1551 3.8502 17.3678 3.90716 18.7274 5.26676L18.7274 5.26677C20.0871 6.62644 20.144 8.83909 18.7747 10.2084L15.4743 13.5088L14.0601 12.0946L17.3605 8.79417C17.9132 8.24142 17.9278 7.29558 17.3132 6.681C16.6986 6.06641 15.7528 6.08098 15.2 6.63372Z" fill="#447DFD"/>
<path fill-rule="evenodd" clip-rule="evenodd" d="M8.52637 10.4906C9.89565 9.12138 12.1083 9.17827 13.468 10.5379L12.0537 11.9521C11.4392 11.3376 10.4933 11.3521 9.94055 11.9049L8.52637 10.4906Z" fill="#447DFD"/>
<path fill-rule="evenodd" clip-rule="evenodd" d="M15.4269 13.5561C14.0577 14.9253 11.845 14.8684 10.4854 13.5088L11.8996 12.0946C12.5142 12.7092 13.46 12.6946 14.0127 12.1419L15.4269 13.5561Z" fill="#447DFD"/>
</svg>
