<?xml version="1.0" standalone="no"?><!DOCTYPE svg PUBLIC "-//W3C//DTD SVG 1.1//EN" "http://www.w3.org/Graphics/SVG/1.1/DTD/svg11.dtd"><svg t="1691568211539" class="icon" viewBox="0 0 1024 1024" version="1.1" xmlns="http://www.w3.org/2000/svg" p-id="6010" xmlns:xlink="http://www.w3.org/1999/xlink" width="200" height="200"><path d="M512 960a448 448 0 1 1 448-448 448 448 0 0 1-448 448zM512 135.04A376.96 376.96 0 1 0 888.96 512 376.96 376.96 0 0 0 512 135.04z" fill="#445365" p-id="6011"></path><path d="M453.12 664.96a34.56 34.56 0 0 1-24.96-10.24L310.4 536.96a35.2 35.2 0 0 1 49.92-49.92l92.8 92.8 210.56-210.56a35.2 35.2 0 0 1 49.92 49.92l-235.52 235.52a34.56 34.56 0 0 1-24.96 10.24z" fill="#445365" p-id="6012"></path></svg>