<svg width="24" height="24" viewBox="0 0 24 24" fill="none" xmlns="http://www.w3.org/2000/svg">
<g clip-path="url(#clip0_1699_18639)">
<rect width="24" height="24" rx="2" fill="#FFF6E6"/>
<path fill-rule="evenodd" clip-rule="evenodd" d="M17.1303 11.741C16.1857 11.741 15.3379 12.1494 14.7512 12.8024L14.7512 12.8024C14.2421 13.3692 13.9336 14.1162 13.9336 14.9376C13.9336 15.1238 13.9494 15.3055 13.9795 15.4817M13.2634 11.4659C14.2133 10.4084 15.5945 9.74097 17.1303 9.74097C19.2998 9.74097 21.1566 11.0702 21.935 12.9549L20.0865 13.7184C19.6063 12.556 18.4623 11.741 17.1303 11.741M13.2634 11.4659C12.4374 12.3855 11.9336 13.6039 11.9336 14.9376ZM11.9336 14.9376C11.9336 15.2373 11.9591 15.5318 12.0082 15.8189ZM13.9795 15.4818C14.1434 16.4397 14.7361 17.2556 15.5563 17.7208L15.5563 17.7208C16.0201 17.9838 16.5561 18.1343 17.1303 18.1343C18.3725 18.1343 19.451 17.4259 19.9808 16.3864L21.7627 17.2945C20.9049 18.9778 19.1535 20.1343 17.1303 20.1343C16.2013 20.1343 15.3264 19.8896 14.5697 19.4605" fill="#FF7D00"/>
<path fill-rule="evenodd" clip-rule="evenodd" d="M5.54053 6.96387V16.9627C5.5594 16.9847 5.59401 17.0198 5.65419 17.0672C5.84749 17.2195 6.18916 17.4005 6.70051 17.5709C7.71276 17.9083 9.17477 18.1342 10.8355 18.1342C11.5832 18.1342 12.2914 18.0884 12.9369 18.007C12.4718 17.3726 12.1469 16.6281 12.0084 15.8189C11.9593 15.5318 11.9339 15.2372 11.9339 14.9375C11.9339 13.6038 12.4376 12.3853 13.2636 11.4658C14.002 10.6438 15.001 10.0575 16.1305 9.83711V6.96387H18.1305V11.7409H17.1305C16.186 11.7409 15.3381 12.1493 14.7515 12.8023C14.2424 13.3691 13.9339 14.1161 13.9339 14.9375C13.9339 15.1237 13.9497 15.3054 13.9798 15.4816C14.1437 16.4396 14.7363 17.2555 15.5566 17.7207L17.5871 18.8722L15.3527 19.5478C14.1216 19.92 12.5377 20.1342 10.8355 20.1342C9.01963 20.1342 7.33414 19.8903 6.06805 19.4683C5.44024 19.259 4.86003 18.9878 4.41624 18.638C3.98373 18.2972 3.54053 17.7633 3.54053 17.0359V6.96387H5.54053Z" fill="#FF7D00"/>
<path fill-rule="evenodd" clip-rule="evenodd" d="M5.52043 7.06508C5.52021 7.06507 5.52122 7.06288 5.52407 7.05857C5.52207 7.06293 5.52064 7.06509 5.52043 7.06508ZM5.6159 6.96405C5.62734 6.95429 5.64006 6.94384 5.65419 6.9327C5.84749 6.78037 6.18916 6.59944 6.70051 6.42899C7.71276 6.09158 9.17477 5.86572 10.8355 5.86572C12.4963 5.86572 13.9583 6.09158 14.9705 6.42899C15.4819 6.59944 15.8236 6.78037 16.0168 6.9327C16.031 6.94384 16.0437 6.95429 16.0551 6.96405C16.0437 6.97381 16.031 6.98427 16.0168 6.9954C15.8236 7.14774 15.4819 7.32866 14.9705 7.49911C13.9583 7.83653 12.4963 8.06238 10.8355 8.06238C9.17477 8.06238 7.71276 7.83653 6.70051 7.49911C6.18916 7.32866 5.84749 7.14774 5.65419 6.9954C5.64006 6.98427 5.62734 6.97381 5.6159 6.96405ZM16.1506 7.06508C16.1504 7.06509 16.149 7.06293 16.147 7.05855C16.1498 7.06288 16.1508 7.06507 16.1506 7.06508ZM16.147 6.86955C16.149 6.86517 16.1504 6.86301 16.1506 6.86302C16.1508 6.86304 16.1498 6.86523 16.147 6.86955ZM5.52407 6.86954C5.52122 6.86522 5.52021 6.86304 5.52043 6.86302C5.52064 6.86301 5.52207 6.86517 5.52407 6.86954ZM6.06806 4.53163C7.33415 4.1096 9.01963 3.86572 10.8355 3.86572C12.6514 3.86572 14.3369 4.1096 15.603 4.53163C16.2308 4.7409 16.811 5.01213 17.2548 5.36188C17.6873 5.70274 18.1305 6.2366 18.1305 6.96405C18.1305 7.6915 17.6873 8.22537 17.2548 8.56623C16.811 8.91597 16.2308 9.1872 15.603 9.39648C14.3369 9.81851 12.6514 10.0624 10.8355 10.0624C9.01963 10.0624 7.33414 9.81851 6.06805 9.39648C5.44024 9.1872 4.86003 8.91597 4.41624 8.56623C3.98373 8.22537 3.54053 7.6915 3.54053 6.96405C3.54053 6.2366 3.98373 5.70274 4.41624 5.36188C4.86003 5.01213 5.44024 4.7409 6.06806 4.53163Z" fill="#FF7D00"/>
<path fill-rule="evenodd" clip-rule="evenodd" d="M4.41624 13.1637C3.98373 12.8228 3.54053 12.2889 3.54053 11.5615H5.54053C5.54053 11.5108 5.52987 11.4796 5.52407 11.467C5.53425 11.4824 5.56798 11.5249 5.65419 11.5928C5.84749 11.7452 6.18916 11.9261 6.70051 12.0965C7.71276 12.434 9.17477 12.6598 10.8355 12.6598C11.9276 12.6598 12.6943 12.5752 13.5632 12.4059L13.9456 14.369C12.9517 14.5626 12.0569 14.6598 10.8355 14.6598C9.01963 14.6598 7.33415 14.4159 6.06805 13.9939C5.44024 13.7846 4.86003 13.5134 4.41624 13.1637ZM5.52043 11.4604C5.52064 11.4604 5.52206 11.4626 5.52407 11.467C5.52122 11.4626 5.52021 11.4605 5.52043 11.4604Z" fill="#FF7D00"/>
<path d="M21.9761 15.4286L17.4761 13.6966L22.7261 10.6655L21.9761 15.4286Z" fill="#FF7D00"/>
<path fill-rule="evenodd" clip-rule="evenodd" d="M21.9761 15.4286L22.7261 10.6655L17.4761 13.6966L21.9761 15.4286ZM21.1807 14.051L21.4125 12.5786L19.7896 13.5156L21.1807 14.051Z" fill="#FF7D00"/>
</g>
<defs>
<clipPath id="clip0_1699_18639">
<rect width="24" height="24" rx="2" fill="white"/>
</clipPath>
</defs>
</svg>
