<?xml version="1.0" standalone="no"?><!DOCTYPE svg PUBLIC "-//W3C//DTD SVG 1.1//EN" "http://www.w3.org/Graphics/SVG/1.1/DTD/svg11.dtd"><svg t="1691031148926" class="icon" viewBox="0 0 1024 1024" version="1.1" xmlns="http://www.w3.org/2000/svg" p-id="31461" xmlns:xlink="http://www.w3.org/1999/xlink" width="200" height="200"><path d="M320.235184 767.605295h148.489857c23.751977 0 43.027959 18.934982 43.027959 42.64496 0 23.539977-19.189982 42.644959-43.028959 42.644959H320.278183a42.729959 42.729959 0 0 1-43.070958-42.644959c0-23.539977 19.189982-42.644959 43.027959-42.64496z m105.332899 170.579837a42.644959 42.644959 0 0 1 0 85.288919H149.102347a127.592878 127.592878 0 0 1-127.763877-127.549878V127.506908A127.635878 127.635878 0 0 1 149.059347 0.00003h682.742347a127.849878 127.849878 0 0 1 127.720878 127.849878v384.014632a42.644959 42.644959 0 0 1-85.289919 0V127.849908a42.559959 42.559959 0 0 0-42.429959-42.55996H149.058347a42.345959 42.345959 0 0 0-42.431959 42.26196v768.415265c0 23.369978 18.976982 42.26096 42.474959 42.260959h276.465736zM989.672543 840.399226l-170.578837 170.579836a42.644959 42.644959 0 1 1-60.299942-60.299942l97.784906-97.784906H618.364898a42.644959 42.644959 0 1 1 0-85.289919h238.213772l-97.784906-97.783906a42.644959 42.644959 0 1 1 60.299942-60.299942l170.579837 170.579836a42.644959 42.644959 0 0 1 0 60.298943zM429.960079 429.475619L307.058196 553.4435c-16.716984 16.844984-11.428989 29.936971 12.579988 29.169972l77.741926-2.388997 92.197911-88.999915 89.553915 92.709911h81.663922c23.667977 0 29.296972-13.475987 12.665987-30.021971L550.900963 431.949617l122.560882-120.939885c16.673984-16.460984 11.428989-29.809971-12.537988-29.809971h-77.442925l-92.197912 89.042915-89.553914-92.751912h-73.94593c-23.667977 0-29.424972 14.029987-13.474987 30.746971L429.960079 429.475619z" fill="#333333" p-id="31462"></path></svg>