<svg width="24" height="24" viewBox="0 0 24 24" fill="none" xmlns="http://www.w3.org/2000/svg">
<rect width="24" height="24" rx="2" fill="#F8FCFF"/>
<path fill-rule="evenodd" clip-rule="evenodd" d="M13.2338 3.37476L13.2451 4.47124C13.2585 5.77613 14.2798 6.86896 15.6035 6.95123C15.7637 6.9612 15.9206 6.95598 16.0728 6.9371L17.491 6.76126L17.1704 8.15388C17.113 8.40309 17.0825 8.66349 17.0825 8.93226C17.0825 10.8119 18.5854 12.3407 20.4547 12.3823L21.6331 12.4085L21.4152 13.5669C20.671 17.5243 17.1983 20.5185 13.0242 20.5185C8.3086 20.5185 4.48584 16.6957 4.48584 11.9801C4.48584 7.56184 7.84093 3.92845 12.143 3.48675L13.2338 3.37476ZM11.4068 5.64315C8.57837 6.36269 6.48584 8.92756 6.48584 11.9801C6.48584 15.5912 9.41317 18.5185 13.0242 18.5185C15.8509 18.5185 18.2601 16.7239 19.1721 14.2118C16.8202 13.6071 15.0825 11.4727 15.0825 8.93226C15.0825 8.92328 15.0825 8.9143 15.0825 8.90532C13.2922 8.63595 11.8715 7.32713 11.4068 5.64315Z" fill="#447DFD"/>
<path d="M12 13.5955C12 14.4766 11.2857 15.1909 10.4045 15.1909C9.52339 15.1909 8.80908 14.4766 8.80908 13.5955C8.80908 12.7143 9.52339 12 10.4045 12C11.2857 12 12 12.7143 12 13.5955Z" fill="#447DFD"/>
<path d="M14.9844 14.1782C14.9844 14.7375 14.531 15.1909 13.9717 15.1909C13.4124 15.1909 12.959 14.7375 12.959 14.1782C12.959 13.6189 13.4124 13.1655 13.9717 13.1655C14.531 13.1655 14.9844 13.6189 14.9844 14.1782Z" fill="#447DFD"/>
<path d="M11.417 8.06885C11.417 8.62814 10.9636 9.08154 10.4043 9.08154C9.845 9.08154 9.3916 8.62814 9.3916 8.06885C9.3916 7.50955 9.845 7.05615 10.4043 7.05615C10.9636 7.05615 11.417 7.50955 11.417 8.06885Z" fill="#447DFD"/>
</svg>
