<?xml version="1.0" standalone="no"?><!DOCTYPE svg PUBLIC "-//W3C//DTD SVG 1.1//EN" "http://www.w3.org/Graphics/SVG/1.1/DTD/svg11.dtd"><svg t="1691030946011" class="icon" viewBox="0 0 1024 1024" version="1.1" xmlns="http://www.w3.org/2000/svg" p-id="23697" xmlns:xlink="http://www.w3.org/1999/xlink" width="200" height="200"><path d="M835.716071 423.134002c14.525617 40.891002 21.495818 80.528489 21.683664 123.20223 0.151722 34.935897 54.338306 34.952153 54.186584 0-0.204103-46.759409-7.960009-93.526044-23.619932-137.608636-4.938204-13.902471-18.304228-23.054585-33.326555-18.923761-13.454529 3.70275-23.870996 19.404216-18.923761 33.330167z" p-id="23698"></path><path d="M857.399735 546.336232a426.629037 426.629037 0 0 1-1.175848 30.317394 386.187783 386.187783 0 0 1-1.454007 14.924791c-0.08128 0.704426-1.188492 8.882987-0.316089 2.65153-0.456974 3.265645-0.988002 6.520452-1.529867 9.773454-3.3397 20.063486-8.467557 39.809077-14.950079 59.079632a382.996194 382.996194 0 0 1-7.559028 20.323582c-2.965812 7.398275 2.165657-4.929173-0.980778 2.382403-4.096506 9.518777-8.666241 18.824419-13.517746 27.976533-9.274937 17.493235-20.056261 34.161029-31.903254 50.014217-4.703395 6.294675 3.307188-4.159723-1.54793 2.015741-1.463038 1.860406-2.960394 3.693719-4.455944 5.527032a382.506708 382.506708 0 0 1-9.208107 10.799386c-6.766098 7.694495-13.906084 15.054839-21.261009 22.1876-6.789579 6.585476-13.880797 12.858476-21.132768 18.927373a372.191389 372.191389 0 0 1-5.498132 4.488456c-0.52561 0.424462-6.735392 5.238036-1.979616 1.594892-4.389113 3.363181-8.879375 6.590895-13.407567 9.762616-16.243332 11.380989-33.454797 21.342289-51.253284 30.080779a383.164172 383.164172 0 0 1-13.024648 6.045416c-0.626758 0.279964-7.958203 3.364987-2.355311 1.034964-2.219844 0.922978-4.455943 1.802607-6.693849 2.684042-9.742748 3.834604-19.673342 7.174304-29.694248 10.196109-9.339961 2.817702-18.809969 5.18385-28.335971 7.275452a379.111015 379.111015 0 0 1-21.7812 4.056769c-1.62921 0.256483-3.263839 0.498517-4.896661 0.733325 3.106697-0.400981 3.047092-0.393756-0.182428 0.018062-20.860029 2.647918-41.940416 3.381243-62.944942 2.631662-10.029937-0.357631-20.038199-1.19933-30.006724-2.333636-0.704426-0.08128-8.882987-1.188492-2.651531-0.316088-2.45104-0.343182-4.894855-0.733325-7.338669-1.123468-5.673335-0.906722-11.315965-1.994066-16.940533-3.155466-19.825065-4.091087-39.265405-9.943238-58.185553-17.117542-2.248743-0.852536-4.48123-1.74842-6.713718-2.642499-7.398275-2.967619 4.929173 2.165657-2.382404-0.980777a383.545284 383.545284 0 0 1-13.067997-5.967749c-9.332736-4.439687-18.441501-9.341767-27.3859-14.518392-8.223717-4.761195-16.221657-9.898083-24.06968-15.253523a388.642436 388.642436 0 0 1-11.570642-8.265261c-0.541866-0.400981-6.785967-5.178431-2.051866-1.502774a387.882017 387.882017 0 0 1-7.387437-5.918981c-15.267973-12.462914-29.454021-26.2245-42.643036-40.858491a382.840859 382.840859 0 0 1-13.761586-16.239719c-0.422655-0.52561-5.238036-6.735392-1.593085-1.979617-6.251326-8.156887-12.099864-16.613607-17.679276-25.24011-10.793968-16.687662-20.130316-34.296495-28.211342-52.445389-0.278158-0.626758-3.363181-7.960009-1.034964-2.35531a379.972582 379.972582 0 0 1-7.683657-20.263976c-3.478779-9.921564-6.45001-20.014718-9.097928-30.189152-2.469102-9.489877-4.48123-19.093546-6.215201-28.744177a371.154619 371.154619 0 0 1-1.215586-7.307964c-0.111986-0.704426-1.269772-8.841444-0.438911-2.611793-0.769449-5.769065-1.354665-11.561611-1.862212-17.359575-1.840538-20.990076-1.770095-42.130069-0.202297-63.134595 0.372081-4.983359 0.88866-9.955882 1.454007-14.922986 0.079474-0.704426 1.186686-8.882987 0.314282-2.65153 0.343182-2.45104 0.733325-4.894855 1.125275-7.338669 1.677978-10.504972 3.894209-20.92144 6.442785-31.247597 2.326411-9.433884 5.10257-18.75217 8.142437-27.97834a383.496516 383.496516 0 0 1 4.831637-13.6496c0.839892-2.255968 1.721327-4.49568 2.602762-6.735392 0.59244-1.488325 1.192105-2.973037 1.802607-4.455944-1.190299 2.779772-1.166818 2.725585 0.074055-0.158947 7.860667-18.262685 17.309001-35.820944 27.895254-52.638654 5.053802-8.030452 10.477879-15.822482 16.107865-23.455566 0.400981-0.541866 5.178431-6.785967 1.504581-2.051865 1.450394-1.869437 2.936913-3.711781 4.421625-5.555931 3.464329-4.296996 7.060512-8.487425 10.705463-12.632699 8.848669-10.062449 18.306034-19.577613 28.146317-28.668316 4.632953-4.278934 9.408597-8.402533 14.245653-12.45027a382.235775 382.235775 0 0 1 7.351314-5.964137c2.440202-1.91098 2.481746-1.950717 0.126435-0.11921 1.880274-1.441363 3.785836-2.846602 5.691397-4.253647 21.716177-16.021167 45.233154-29.535301 69.803158-40.661613 0.937428-0.424462 10.103992-4.320477 4.544448-2.008516a376.836985 376.836985 0 0 1 8.93898-3.551027c6.757067-2.609987 13.609864-4.963491 20.502397-7.186948 13.149278-4.239197 26.560457-7.63489 40.087235-10.425498 6.439172-1.327571 12.925306-2.429365 19.424084-3.424592 3.213264-0.456974 3.269257-0.478648 0.166172-0.063218a386.697137 386.697137 0 0 1 17.361382-1.862212c14.689983-1.287834 29.452215-1.587667 44.187353-1.21378 14.769457 0.375694 27.093292-12.607412 27.093292-27.093292 0-15.051227-12.33106-26.719405-27.093292-27.093292-85.090999-2.158432-170.070012 22.016009-240.738349 69.600861-70.175239 47.252507-123.200423 114.662424-154.599742 192.981906-63.763159 159.03943-15.231849 348.127127 113.423357 459.874313 64.884822 56.35766 145.001492 90.128545 230.256857 99.27524 84.632219 9.078059 171.744378-10.497748 245.481481-52.571824 127.094632-72.526936 206.320837-211.463144 206.79226-357.335233 0.115598-34.937703-54.070986-34.926866-54.184778 0.010837z" p-id="23699"></path><path d="M445.726195 278.529878l100.228925-225.985148 145.593932 199.79316z" p-id="23700"></path><path d="M457.423273 285.366419l99.979666-225.421607 0.249258-0.565347h-23.392348l145.230882 199.294643 0.36305 0.498516 11.697077-20.384992-245.208742 26.126964-0.614114 0.065024c-7.340476 0.782093-13.546646 5.570381-13.546646 13.546646 0 6.791385 6.188108 14.330545 13.546646 13.546646l245.208742-26.126965 0.614114-0.065023c9.043741-0.964521 18.401764-11.185917 11.697077-20.383187L558.013441 46.206706l-0.36305-0.498516c-5.275967-7.241134-18.844288-10.259327-23.392349 0l-99.979665 225.421607-0.251065 0.565347c-2.994712 6.749842-2.031997 14.496717 4.85873 18.533618 5.834089 3.413755 15.542518 1.891112 18.537231-4.862343z" p-id="23701"></path></svg>