<?xml version="1.0" standalone="no"?><!DOCTYPE svg PUBLIC "-//W3C//DTD SVG 1.1//EN" "http://www.w3.org/Graphics/SVG/1.1/DTD/svg11.dtd"><svg t="1691142315500" class="icon" viewBox="0 0 1024 1024" version="1.1" xmlns="http://www.w3.org/2000/svg" p-id="21022" xmlns:xlink="http://www.w3.org/1999/xlink" width="200" height="200"><path d="M733.866667 755.456H556.2368c-14.421333 0-26.112 12.475733-26.112 27.869867v168.618666h28.433067L733.866667 760.439467v-4.983467zM733.866667 699.733333v-88.183466c0-15.189333 11.4688-27.477333 25.6-27.477334s25.6 12.288 25.6 27.477334v160.136533c0 7.2192-2.645333 14.1312-7.338667 19.285333L587.554133 998.7072a24.746667 24.746667 0 0 1-18.261333 8.226133H186.026667C121.002667 1006.933333 68.266667 950.306133 68.266667 880.452267V143.530667C68.266667 73.693867 121.002667 17.066667 186.026667 17.066667h481.28C732.330667 17.066667 785.066667 73.693867 785.066667 143.547733v48.930134c0 15.189333-11.4688 27.477333-25.6 27.477333s-25.6-12.288-25.6-27.477333V143.530667c0-39.4752-29.7984-71.492267-66.56-71.492267H186.026667c-36.7616 0-66.56 32.017067-66.56 71.509333v736.887467c0 39.4752 29.7984 71.492267 66.56 71.492267H477.866667v-168.618667C477.866667 737.160533 512.955733 699.733333 556.2368 699.733333H733.866667zM240.725333 290.133333h47.1552l44.5952 83.114667L398.677333 290.133333h47.1552l-94.293333 113.7664 68.9152 121.685334h-47.1552l-48.827733-91.016534-72.533334 91.016534H204.8l99.925333-121.685334L240.725333 290.133333z m252.0576 0h45.175467l56.098133 184.661334h1.314134L699.221333 290.133333h45.175467l-30.651733 235.451734h-38.570667l21.111467-162.235734h-1.314134l-90.385066 162.235734h-33.297067l-48.128-162.235734h-1.3312l-21.111467 162.235734h-38.587733L492.782933 290.133333z m314.709334 0h38.263466L819.370667 492.612267h127.300266l-4.3008 32.9728h-165.546666L807.492267 290.133333z" fill="#979797" p-id="21023"></path></svg>