<svg width="24" height="24" viewBox="0 0 24 24" fill="none" xmlns="http://www.w3.org/2000/svg">
<rect width="24" height="24" rx="2" fill="#F8FCFF"/>
<path fill-rule="evenodd" clip-rule="evenodd" d="M21 7H4V5H21V7Z" fill="#447DFD"/>
<path fill-rule="evenodd" clip-rule="evenodd" d="M21 13H4V11H21V13Z" fill="#447DFD"/>
<path fill-rule="evenodd" clip-rule="evenodd" d="M21 18H4V16H21V18Z" fill="#447DFD"/>
<path d="M9.85107 6C9.85107 6.82843 9.1795 7.5 8.35107 7.5C7.52265 7.5 6.85107 6.82843 6.85107 6C6.85107 5.17157 7.52265 4.5 8.35107 4.5C9.1795 4.5 9.85107 5.17157 9.85107 6Z" fill="#F8FCFF"/>
<path fill-rule="evenodd" clip-rule="evenodd" d="M8.35107 5.5C8.07493 5.5 7.85107 5.72386 7.85107 6C7.85107 6.27614 8.07493 6.5 8.35107 6.5C8.62722 6.5 8.85107 6.27614 8.85107 6C8.85107 5.72386 8.62722 5.5 8.35107 5.5ZM5.85107 6C5.85107 4.61929 6.97036 3.5 8.35107 3.5C9.73179 3.5 10.8511 4.61929 10.8511 6C10.8511 7.38071 9.73179 8.5 8.35107 8.5C6.97036 8.5 5.85107 7.38071 5.85107 6Z" fill="#447DFD"/>
<path d="M18.1699 12C18.1699 12.8284 17.4983 13.5 16.6699 13.5C15.8415 13.5 15.1699 12.8284 15.1699 12C15.1699 11.1716 15.8415 10.5 16.6699 10.5C17.4983 10.5 18.1699 11.1716 18.1699 12Z" fill="#F8FCFF"/>
<path fill-rule="evenodd" clip-rule="evenodd" d="M16.6699 11.5C16.3938 11.5 16.1699 11.7239 16.1699 12C16.1699 12.2761 16.3938 12.5 16.6699 12.5C16.9461 12.5 17.1699 12.2761 17.1699 12C17.1699 11.7239 16.9461 11.5 16.6699 11.5ZM14.1699 12C14.1699 10.6193 15.2892 9.5 16.6699 9.5C18.0506 9.5 19.1699 10.6193 19.1699 12C19.1699 13.3807 18.0506 14.5 16.6699 14.5C15.2892 14.5 14.1699 13.3807 14.1699 12Z" fill="#447DFD"/>
<path d="M10.187 17C10.187 17.8284 9.51544 18.5 8.68701 18.5C7.85858 18.5 7.18701 17.8284 7.18701 17C7.18701 16.1716 7.85858 15.5 8.68701 15.5C9.51544 15.5 10.187 16.1716 10.187 17Z" fill="#F8FCFF"/>
<path fill-rule="evenodd" clip-rule="evenodd" d="M8.68701 16.5C8.41087 16.5 8.18701 16.7239 8.18701 17C8.18701 17.2761 8.41087 17.5 8.68701 17.5C8.96315 17.5 9.18701 17.2761 9.18701 17C9.18701 16.7239 8.96315 16.5 8.68701 16.5ZM6.18701 17C6.18701 15.6193 7.3063 14.5 8.68701 14.5C10.0677 14.5 11.187 15.6193 11.187 17C11.187 18.3807 10.0677 19.5 8.68701 19.5C7.3063 19.5 6.18701 18.3807 6.18701 17Z" fill="#447DFD"/>
</svg>
