<svg width="24" height="24" viewBox="0 0 24 24" fill="none" xmlns="http://www.w3.org/2000/svg">
<rect width="24" height="24" rx="2" fill="#F8FCFF"/>
<path fill-rule="evenodd" clip-rule="evenodd" d="M12 6.1377C8.76234 6.1377 6.1377 8.76234 6.1377 12C6.1377 15.2377 8.76234 17.8623 12 17.8623C15.2377 17.8623 17.8623 15.2377 17.8623 12C17.8623 8.76234 15.2377 6.1377 12 6.1377ZM4.1377 12C4.1377 7.65777 7.65777 4.1377 12 4.1377C16.3422 4.1377 19.8623 7.65777 19.8623 12C19.8623 16.3422 16.3422 19.8623 12 19.8623C7.65777 19.8623 4.1377 16.3422 4.1377 12Z" fill="#447DFD"/>
<path fill-rule="evenodd" clip-rule="evenodd" d="M10.4438 8.4624H12.4438V11.5581H15.2665V13.5581H10.4438V8.4624Z" fill="#447DFD"/>
</svg>
