<?xml version="1.0" standalone="no"?><!DOCTYPE svg PUBLIC "-//W3C//DTD SVG 1.1//EN" "http://www.w3.org/Graphics/SVG/1.1/DTD/svg11.dtd"><svg t="1691030640107" class="icon" viewBox="0 0 1024 1024" version="1.1" xmlns="http://www.w3.org/2000/svg" p-id="15401" xmlns:xlink="http://www.w3.org/1999/xlink" width="200" height="200"><path d="M984.153043 419.750957V40.626087C984.153043 17.408 965.609739 0 945.241043 0H537.488696c-22.26087 0-38.934261 19.344696-38.934261 40.626087v377.188174c0 23.218087 18.543304 40.626087 38.934261 40.626087h405.882434c22.26087 1.936696 40.781913-15.471304 40.781913-38.689391zM948.98087 102.043826v256.289391c0 35.172174-25.933913 65.313391-61.261913 65.313392H593.14087c-32.990609 0-61.261913-27.625739-61.261913-65.313392V102.043826c0-35.172174 25.933913-65.313391 61.261913-65.313391h294.578087c35.328 2.493217 61.261913 30.141217 61.261913 65.313391zM612.173913 111.304348h244.869565a11.130435 11.130435 0 1 1 0 22.260869h-244.869565a11.130435 11.130435 0 1 1 0-22.260869z m0 66.782609h244.869565a11.130435 11.130435 0 1 1 0 22.260869h-244.869565a11.130435 11.130435 0 1 1 0-22.260869z m0 66.782608h244.869565a11.130435 11.130435 0 1 1 0 22.26087h-244.869565a11.130435 11.130435 0 1 1 0-22.26087z m-190.063304 360.336696C379.191652 588.109913 320.222609 578.782609 256.089043 578.782609c-64.111304 0-123.102609 9.327304-166.021565 26.423652C46.391652 622.458435 22.26087 646.455652 22.26087 672.879304V930.05913c0 26.267826 24.130783 50.242783 67.806608 67.494957C133.008696 1014.672696 191.977739 1024 256.089043 1024s123.102609-9.327304 166.021566-26.423652C465.786435 980.324174 489.73913 956.326957 489.73913 930.081391V672.857043c0-26.401391-23.952696-50.398609-67.628521-67.673043z m34.838261 238.747826v86.149565c0 14.469565-21.192348 30.363826-56.943305 42.451478-39.245913 13.289739-90.290087 20.702609-144.094608 20.702609s-104.848696-7.234783-144.094609-20.702609c-35.57287-12.087652-56.765217-27.959652-56.765218-42.473739v-86.149565c41.093565 27.826087 115.533913 44.388174 200.859827 44.388174 85.303652 0 159.944348-16.584348 201.015652-44.365913z m0-121.544348v71.813565c0 14.514087-21.192348 30.386087-56.943305 42.473739-39.245913 13.289739-90.290087 20.702609-144.094608 20.702609s-104.848696-7.234783-144.094609-20.702609c-35.57287-12.087652-56.765217-27.959652-56.765218-42.473739v-71.813565c41.093565 27.803826 115.533913 44.365913 200.859827 44.365913 85.303652 0 159.944348-16.406261 201.015652-44.365913z m-56.943305-7.078956c-39.245913 13.289739-90.290087 20.702609-144.094608 20.702608s-104.848696-7.234783-144.094609-20.702608c-35.57287-12.087652-56.765217-27.959652-56.765218-42.629566 0-14.692174 21.370435-30.386087 56.943305-42.473739 39.245913-13.289739 90.468174-20.702609 144.094608-20.702608s104.848696 7.234783 144.094609 20.702608c35.57287 12.087652 56.943304 27.959652 56.943305 42.629565 0 14.692174-21.370435 30.386087-57.121392 42.47374zM237.234087 330.796522H164.953043v-19.344696c0-119.919304 90.824348-216.642783 200.16974-216.642783h24.08626V0h-24.08626C209.430261 0 81.541565 139.264 81.541565 309.49287v19.366956l-18.521043 1.914435H0l118.628174 145.074087 118.605913-145.074087z m667.225043 216.642782L785.808696 692.49113h72.281043v19.366957c-1.847652 119.919304-92.649739 216.642783-202.017391 216.642783h-24.086261v94.764521h24.086261c155.692522 0 283.581217-139.264 283.581217-309.492869v-19.344696l18.521044-1.936696h64.868174l-118.605913-145.074087z" fill="#4A4A4A" p-id="15402"></path></svg>