<?xml version="1.0" standalone="no"?><!DOCTYPE svg PUBLIC "-//W3C//DTD SVG 1.1//EN" "http://www.w3.org/Graphics/SVG/1.1/DTD/svg11.dtd"><svg t="1691030869155" class="icon" viewBox="0 0 1024 1024" version="1.1" xmlns="http://www.w3.org/2000/svg" p-id="19150" xmlns:xlink="http://www.w3.org/1999/xlink" width="200" height="200"><path d="M896 512c0 211.2-172.8 384-384 384s-384-172.8-384-384 172.8-384 384-384 384 172.8 384 384m64 0c0-249.6-198.4-448-448-448S64 262.4 64 512s198.4 448 448 448 448-198.4 448-448z" fill="" p-id="19151"></path><path d="M736 480h-192v-192c0-19.2-12.8-32-32-32s-32 12.8-32 32v192h-192c-12.8 0-32 12.8-32 32s12.8 32 32 32h192v192c0 12.8 12.8 32 32 32s32-12.8 32-32v-192h192c12.8 0 32-12.8 32-32s-19.2-32-32-32z" fill="" p-id="19152"></path></svg>