<?xml version="1.0" standalone="no"?><!DOCTYPE svg PUBLIC "-//W3C//DTD SVG 1.1//EN" "http://www.w3.org/Graphics/SVG/1.1/DTD/svg11.dtd"><svg t="1691032092419" class="icon" viewBox="0 0 1024 1024" version="1.1" xmlns="http://www.w3.org/2000/svg" p-id="59554" xmlns:xlink="http://www.w3.org/1999/xlink" width="200" height="200"><path d="M887.601982 812.553217 134.381082 812.553217c-38.818097 0-70.171176-31.386848-70.171176-70.245877l0-94.160543c0-13.452383 10.450003-23.914666 23.141046-23.914666 13.438057 0 23.88806 10.462283 23.88806 23.914666l0 94.160543c0 12.703323 10.451026 23.167652 23.14207 23.167652l753.219877 0c12.69002 0 23.140023-10.464329 23.140023-23.167652l0-94.160543c0-13.452383 10.45205-23.914666 23.889083-23.914666 12.691043 0 23.14207 10.462283 23.14207 23.914666l0 94.160543C957.773158 781.166369 926.418033 812.553217 887.601982 812.553217L887.601982 812.553217z" fill="#24282B" p-id="59555"></path><path d="M258.300392 326.058101l78.381162-76.972069c9.705036-8.221242 8.959046-23.914666 0.747014-32.882921-10.451026-9.714246-24.635073-9.714246-34.340109 0L185.889199 332.035232c-4.477988 5.231141-6.718005 10.463306-6.718005 17.188474 0 5.979178 1.49198 11.95631 6.718005 16.440437l116.455315 117.328195c8.958022 8.967232 24.63405 8.967232 33.592073 0 9.705036-8.968256 9.705036-24.661679 0-32.881898l-76.143191-76.973092c78.383208 0 156.019403 0 234.401588 0 53.748135 0 101.524255 28.39777 126.160351 76.226079 24.63405 47.081295 26.874067 113.590058 0.74599 159.923316-10.451026 19.429515-20.155039 26.903743-32.846082 43.343157-18.663058 20.177552 11.94403 44.091194 31.353079 30.638811 32.847106-23.911596 50.762127-60.531632 60.46614-96.401584 17.916045-69.498864 1.493004-149.462057-48.523133-202.520483-37.323047-38.860053-82.861196-58.288544-138.102335-58.288544C415.066809 326.058101 336.682577 326.058101 258.300392 326.058101L258.300392 326.058101z" fill="#24211D" p-id="59556"></path></svg>