<?xml version="1.0" standalone="no"?><!DOCTYPE svg PUBLIC "-//W3C//DTD SVG 1.1//EN" "http://www.w3.org/Graphics/SVG/1.1/DTD/svg11.dtd"><svg t="1691030468985" class="icon" viewBox="0 0 1024 1024" version="1.1" xmlns="http://www.w3.org/2000/svg" p-id="5878" xmlns:xlink="http://www.w3.org/1999/xlink" width="200" height="200"><path d="M832 708.032A128.064 128.064 0 0 1 800 960a128 128 0 0 1-32-251.968V576a32 32 0 0 0-32-32H288a32 32 0 0 0-32 32v132.032A128.064 128.064 0 0 1 224 960a128 128 0 0 1-32-251.968V544a64 64 0 0 1 64-64h224V315.968A128.064 128.064 0 0 1 512 64a128 128 0 0 1 32 251.968V480h224a64 64 0 0 1 64 64v164.032zM512 256a64 64 0 1 0 0-128 64 64 0 0 0 0 128zM224 896a64 64 0 1 0 0-128 64 64 0 0 0 0 128z m576 0a64 64 0 1 0 0-128 64 64 0 0 0 0 128z" fill="#000000" p-id="5879"></path></svg>