<svg width="24" height="24" viewBox="0 0 24 24" fill="none" xmlns="http://www.w3.org/2000/svg">
<rect width="24" height="24" rx="2" fill="#FFF6E6"/>
<path fill-rule="evenodd" clip-rule="evenodd" d="M15.1857 17C17.065 17 18.9644 14.9942 18.9644 12H20.9644C20.9644 15.6556 18.566 19 15.1857 19H4.03564V17H15.1857Z" fill="#FF7D00"/>
<path fill-rule="evenodd" clip-rule="evenodd" d="M8.81426 7C6.93497 7 5.03564 9.00577 5.03564 12H3.03564C3.03564 8.34443 5.43405 5 8.81426 5H19.9644V7H8.81426Z" fill="#FF7D00"/>
<path fill-rule="evenodd" clip-rule="evenodd" d="M5.45001 18.0001L7.7429 15.7072L6.32869 14.293L2.62158 18.0001L6.32869 21.7072L7.7429 20.293L5.45001 18.0001Z" fill="#FF7D00"/>
<path fill-rule="evenodd" clip-rule="evenodd" d="M18.55 5.99992L16.2571 8.29282L17.6713 9.70703L21.3784 5.99992L17.6713 2.29282L16.2571 3.70703L18.55 5.99992Z" fill="#FF7D00"/>
<path d="M8.00032 10.0192H8.5416V14.411H7.82194V10.8865C7.55745 11.1264 7.2253 11.3048 6.81934 11.4216V10.7081C7.01617 10.6589 7.2253 10.5728 7.44673 10.4498C7.66817 10.3145 7.8527 10.173 8.00032 10.0192Z" fill="#FF7D00"/>
<path d="M11.0091 9.93311C11.4335 9.93311 11.7841 10.0561 12.0609 10.3022C12.3315 10.5482 12.4669 10.8619 12.4669 11.2556C12.4669 11.6369 12.3192 11.9814 12.0363 12.2951C11.8641 12.4796 11.5565 12.7133 11.126 13.0024C10.6769 13.2977 10.4063 13.556 10.3079 13.7774H12.473V14.411H9.40985C9.40985 13.962 9.55132 13.5745 9.84656 13.2423C10.0065 13.0578 10.3448 12.7871 10.8553 12.4365C11.1383 12.2397 11.3351 12.0736 11.4581 11.9445C11.6488 11.7292 11.7472 11.4954 11.7472 11.2494C11.7472 11.0095 11.6795 10.8311 11.5565 10.7143C11.4274 10.5974 11.2367 10.542 10.9845 10.542C10.7138 10.542 10.5109 10.6343 10.3755 10.8188C10.2402 10.9911 10.1664 11.2556 10.1541 11.6H9.43445C9.4406 11.1079 9.58207 10.7143 9.86502 10.4129C10.1541 10.093 10.5355 9.93311 11.0091 9.93311Z" fill="#FF7D00"/>
<path d="M14.6727 9.93311C15.1155 9.93311 15.4784 10.0377 15.7491 10.253C16.0136 10.4682 16.1489 10.7635 16.1489 11.1448C16.1489 11.6246 15.9028 11.9445 15.4169 12.1044C15.6753 12.1844 15.8782 12.3012 16.0136 12.4611C16.1612 12.6272 16.235 12.8425 16.235 13.1008C16.235 13.5068 16.0935 13.839 15.8106 14.0973C15.5153 14.3618 15.1278 14.4971 14.6481 14.4971C14.1929 14.4971 13.8238 14.3802 13.547 14.1465C13.2395 13.8882 13.0673 13.5068 13.0304 13.0147H13.7623C13.7746 13.2977 13.8607 13.5191 14.033 13.6729C14.1867 13.8144 14.3897 13.8882 14.6419 13.8882C14.9187 13.8882 15.1401 13.8082 15.3001 13.6544C15.4415 13.513 15.5153 13.3407 15.5153 13.1316C15.5153 12.8794 15.4354 12.6949 15.2878 12.578C15.1401 12.455 14.9248 12.3996 14.6419 12.3996H14.3344V11.8584H14.6419C14.9002 11.8584 15.0971 11.803 15.2324 11.6923C15.3616 11.5816 15.4292 11.4155 15.4292 11.2002C15.4292 10.9849 15.3677 10.825 15.2508 10.7143C15.1217 10.6036 14.931 10.5482 14.6788 10.5482C14.4205 10.5482 14.2236 10.6097 14.0822 10.7389C13.9345 10.868 13.8484 11.0649 13.8238 11.3294H13.1165C13.1534 10.8865 13.3133 10.542 13.6085 10.296C13.8853 10.05 14.2421 9.93311 14.6727 9.93311Z" fill="#FF7D00"/>
</svg>
