<svg width="24" height="24" viewBox="0 0 24 24" fill="none" xmlns="http://www.w3.org/2000/svg">
<rect width="24" height="24" rx="2" fill="#FFF6E6"/>
<path fill-rule="evenodd" clip-rule="evenodd" d="M7.8291 18.605V5.8623H9.8291V18.605H7.8291Z" fill="#FF7D00"/>
<path fill-rule="evenodd" clip-rule="evenodd" d="M17.3369 8.54492V9.07802C17.3369 12.3917 14.6506 15.078 11.3369 15.078H8.99707V13.078H11.3369C13.5461 13.078 15.3369 11.2872 15.3369 9.07802V8.54492H17.3369Z" fill="#FF7D00"/>
<path d="M11.1006 5.39502C11.1006 6.64926 10.0838 7.66602 8.82959 7.66602C7.57535 7.66602 6.55859 6.64926 6.55859 5.39502C6.55859 4.14078 7.57535 3.12402 8.82959 3.12402C10.0838 3.12402 11.1006 4.14078 11.1006 5.39502Z" fill="#FF7D00"/>
<path d="M18.6074 8.54541C18.6074 9.79965 17.5907 10.8164 16.3364 10.8164C15.0822 10.8164 14.0654 9.79965 14.0654 8.54541C14.0654 7.29117 15.0822 6.27441 16.3364 6.27441C17.5907 6.27441 18.6074 7.29117 18.6074 8.54541Z" fill="#FF7D00"/>
<path d="M11.1006 18.605C11.1006 19.8592 10.0838 20.876 8.82959 20.876C7.57535 20.876 6.55859 19.8592 6.55859 18.605C6.55859 17.3507 7.57535 16.334 8.82959 16.334C10.0838 16.334 11.1006 17.3507 11.1006 18.605Z" fill="#FF7D00"/>
</svg>
