<svg width="24" height="24" viewBox="0 0 24 24" fill="none" xmlns="http://www.w3.org/2000/svg">
<rect width="24" height="24" rx="2" fill="#F8FCFF"/>
<path fill-rule="evenodd" clip-rule="evenodd" d="M7.39062 10.9612L13.0385 16.6091L11.1024 18.5451C9.54281 20.1048 7.01417 20.1048 5.45455 18.5451C3.89493 16.9855 3.89493 14.4569 5.45455 12.8973L7.39062 10.9612ZM7.39062 13.7896L6.86876 14.3115C6.09019 15.09 6.09019 16.3524 6.86876 17.1309C7.64733 17.9095 8.90964 17.9095 9.68821 17.1309L10.2101 16.6091L7.39062 13.7896Z" fill="#447DFD"/>
<path fill-rule="evenodd" clip-rule="evenodd" d="M11.068 12.0243L9.25259 13.8398L7.83838 12.4255L9.65379 10.6101L11.068 12.0243Z" fill="#447DFD"/>
<path fill-rule="evenodd" clip-rule="evenodd" d="M13.3898 14.3459L11.5744 16.1613L10.1602 14.7471L11.9756 12.9317L13.3898 14.3459Z" fill="#447DFD"/>
<path fill-rule="evenodd" clip-rule="evenodd" d="M6.86879 18.5451L5.05337 20.3605L3.63916 18.9463L5.45457 17.1309L6.86879 18.5451Z" fill="#447DFD"/>
<path fill-rule="evenodd" clip-rule="evenodd" d="M16.6094 13.0388L10.9615 7.39094L12.8976 5.45486C14.4572 3.89525 16.9858 3.89525 18.5455 5.45486C20.1051 7.01448 20.1051 9.54312 18.5455 11.1027L16.6094 13.0388ZM16.6094 10.2104L17.1312 9.68853C17.9098 8.90996 17.9098 7.64765 17.1312 6.86908C16.3527 6.09051 15.0904 6.09051 14.3118 6.86908L13.7899 7.39094L16.6094 10.2104Z" fill="#447DFD"/>
<path fill-rule="evenodd" clip-rule="evenodd" d="M12.932 11.9757L14.7474 10.1602L16.1616 11.5745L14.3462 13.3899L12.932 11.9757Z" fill="#447DFD"/>
<path fill-rule="evenodd" clip-rule="evenodd" d="M10.6102 9.65413L12.4256 7.83872L13.8398 9.25293L12.0244 11.0683L10.6102 9.65413Z" fill="#447DFD"/>
<path fill-rule="evenodd" clip-rule="evenodd" d="M17.1312 5.45491L18.9466 3.6395L20.3608 5.05371L18.5454 6.86913L17.1312 5.45491Z" fill="#447DFD"/>
</svg>
