<?xml version="1.0" standalone="no"?><!DOCTYPE svg PUBLIC "-//W3C//DTD SVG 1.1//EN" "http://www.w3.org/Graphics/SVG/1.1/DTD/svg11.dtd"><svg t="1691149766171" class="icon" viewBox="0 0 1024 1024" version="1.1" xmlns="http://www.w3.org/2000/svg" p-id="11266" xmlns:xlink="http://www.w3.org/1999/xlink" width="200" height="200"><path d="M486.912 570.88h218.624a102.4 102.4 0 1 0-13.824-51.2h-204.8V226.304h222.72a94.72 94.72 0 1 0 92.16-116.224 94.208 94.208 0 0 0-83.968 51.2H460.8a29.696 29.696 0 0 0-25.6 32.768v325.632H265.728a95.744 95.744 0 1 0-10.24 51.2h180.224v274.432a29.696 29.696 0 0 0 25.6 32.768h242.688a102.4 102.4 0 0 0 90.112 51.2 96.256 96.256 0 1 0 0-192 102.4 102.4 0 0 0-102.4 75.776h-204.8z m307.2-89.6a34.816 34.816 0 0 1 29.696 15.872 30.208 30.208 0 0 1 0 31.744 34.816 34.816 0 0 1-29.696 15.872 32.256 32.256 0 1 1 0-64z m7.68-307.2A32.256 32.256 0 1 1 768 204.8a31.744 31.744 0 0 1 33.792-30.72zM199.168 541.696a31.232 31.232 0 0 1-27.136 15.872 31.744 31.744 0 0 1 0-64 31.232 31.232 0 0 1 27.136 15.872 32.256 32.256 0 0 1 0 32.256z m594.944 259.072a32.256 32.256 0 1 1-34.304 31.744 33.28 33.28 0 0 1 34.304-31.744z" fill="" p-id="11267"></path></svg>