<svg width="24" height="24" viewBox="0 0 24 24" fill="none" xmlns="http://www.w3.org/2000/svg">
<rect width="24" height="24" rx="2" fill="#FFF6E6"/>
<path fill-rule="evenodd" clip-rule="evenodd" d="M8.5 8.77173C7.94772 8.77173 7.5 9.21944 7.5 9.77173V11.7717H5.5V9.77173C5.5 8.11487 6.84315 6.77173 8.5 6.77173H16.5V8.77173H8.5Z" fill="#FF7D00"/>
<path fill-rule="evenodd" clip-rule="evenodd" d="M15.5 15.2283C16.0523 15.2283 16.5 14.7806 16.5 14.2283V12.2283H18.5V14.2283C18.5 15.8851 17.1569 17.2283 15.5 17.2283H7.5V15.2283H15.5Z" fill="#FF7D00"/>
<path d="M18.5 7.77157L14.75 10.8027L14.75 4.74048L18.5 7.77157Z" fill="#FF7D00"/>
<path fill-rule="evenodd" clip-rule="evenodd" d="M18.5 7.77157L14.75 4.74048L14.75 10.8027L18.5 7.77157ZM16.9092 7.77157L15.75 6.83459L15.75 8.70855L16.9092 7.77157Z" fill="#FF7D00"/>
<path d="M5.5 16.2282L9.25 13.1971L9.25 19.2593L5.5 16.2282Z" fill="#FF7D00"/>
<path fill-rule="evenodd" clip-rule="evenodd" d="M5.5 16.2282L9.25 19.2593L9.25 13.1971L5.5 16.2282ZM7.09079 16.2282L8.25 17.1652L8.25 15.2912L7.09079 16.2282Z" fill="#FF7D00"/>
</svg>
