<svg width="24" height="24" viewBox="0 0 24 24" fill="none" xmlns="http://www.w3.org/2000/svg">
<rect width="24" height="24" rx="2" fill="#F8FCFF"/>
<path d="M3.70744 20.0061C3.38288 20.0061 3.05831 19.8979 2.73375 19.7897C2.51737 19.5733 2.40918 19.3569 2.40918 19.0324C2.40918 18.816 2.51737 18.5996 2.73375 18.3832C2.95012 18.275 3.1665 18.1668 3.38288 18.1668H3.92382C4.24839 18.1668 4.57295 18.275 5.00571 18.275C5.33027 18.275 5.65484 18.275 5.87122 18.0587C6.19578 17.5177 6.41216 16.9768 6.52035 16.4358L8.03499 10.2691H6.19578L6.52035 9.07901H8.46774V8.86263C8.57593 7.99712 8.9005 7.02342 9.33325 6.2661C9.766 5.50878 10.4151 4.96784 11.0643 4.64327C11.7134 4.31871 12.3625 4.10233 13.1199 3.99414C13.4444 3.99414 13.769 4.10233 13.9854 4.21052C14.2017 4.4269 14.3099 4.64327 14.3099 4.96784C14.3099 5.18422 14.2017 5.40059 14.0935 5.61697C13.8772 5.72516 13.6608 5.83335 13.4444 5.83335C13.1199 5.83335 12.6871 5.72516 12.3625 5.61697C12.1462 5.61697 12.038 5.50878 11.8216 5.50878C11.6052 5.50878 11.2806 5.72516 11.0643 6.04972C10.8479 6.59067 10.6315 7.13161 10.5233 7.67255L10.0906 9.07901L14.7427 8.97082H14.8509C15.0672 8.97082 15.2836 9.07901 15.5 9.29538C15.6082 9.51176 15.7164 9.83633 15.8246 10.1609L15.9328 10.5936L16.2573 10.1609C16.5819 9.72814 16.9065 9.40357 17.3392 9.07901C17.772 8.75444 18.2047 8.53806 18.7457 8.42987C18.962 8.42987 19.1784 8.53806 19.3948 8.64625C19.7194 8.97082 19.7194 9.40357 19.3948 9.72814L19.2866 9.83633C19.1784 9.94451 18.962 10.0527 18.3129 10.0527C17.9883 10.0527 17.6638 10.1609 17.4474 10.3773C17.0146 10.81 16.5819 11.2428 16.2573 11.7837V12.0001L16.6901 14.2721C16.9065 15.1376 17.4474 16.0031 17.772 16.0031C18.0965 16.0031 18.0965 15.7867 18.2047 15.6785V15.5703C18.3129 15.2458 18.6375 15.0294 18.962 14.9212C19.1784 14.9212 19.2866 15.0294 19.503 15.1376C19.6112 15.2458 19.7194 15.4621 19.7194 15.6785C19.7194 16.1113 19.503 16.4358 19.1784 16.6522C18.8538 16.9768 18.4211 17.085 17.9883 17.085C17.3392 17.085 16.7983 16.8686 16.2573 16.4358C15.7164 15.7867 15.2836 15.0294 15.0672 14.2721L14.9591 13.8393L14.6345 14.1639C14.2017 14.813 13.769 15.3539 13.228 15.8949C12.9035 16.2195 12.4707 16.3276 12.038 16.3276C11.7134 16.3276 11.497 16.2195 11.2806 16.0031C11.0643 15.7867 10.9561 15.5703 10.9561 15.3539C10.9561 15.1376 10.9561 14.9212 11.1725 14.7048C11.2806 14.4884 11.497 14.4884 11.7134 14.4884C11.9298 14.4884 12.2543 14.5966 12.3625 14.813L12.4707 15.0294L12.6871 14.9212L13.0117 14.5966C13.3362 14.2721 13.5526 14.0557 13.769 13.7311L14.7427 12.3247L14.3099 10.2691L9.98238 10.1609L8.79231 15.0294C8.46774 16.4358 7.81861 17.6259 6.9531 18.7078C5.9794 19.4651 4.89752 20.0061 3.70744 20.0061Z" fill="#447DFD"/>
</svg>
