<?xml version="1.0" standalone="no"?><!DOCTYPE svg PUBLIC "-//W3C//DTD SVG 1.1//EN" "http://www.w3.org/Graphics/SVG/1.1/DTD/svg11.dtd"><svg t="1691031978858" class="icon" viewBox="0 0 1024 1024" version="1.1" xmlns="http://www.w3.org/2000/svg" p-id="59413" xmlns:xlink="http://www.w3.org/1999/xlink" width="200" height="200"><path d="M624 288H236.8l105.6-105.6c12.8-12.8 12.8-32 0-44.8s-32-12.8-44.8 0l-160 160c-3.2 3.2-6.4 6.4-6.4 9.6-3.2 9.6-3.2 16 0 25.6 3.2 3.2 3.2 6.4 6.4 9.6l160 160c6.4 6.4 12.8 9.6 22.4 9.6s16-3.2 22.4-9.6c12.8-12.8 12.8-32 0-44.8L236.8 352h387.2c115.2 0 208 92.8 208 208S739.2 768 624 768H252.8c-19.2 0-32 12.8-32 32s12.8 32 32 32h371.2c150.4 0 272-121.6 272-272S774.4 288 624 288z" p-id="59414"></path></svg>