<svg width="24" height="24" viewBox="0 0 24 24" fill="none" xmlns="http://www.w3.org/2000/svg">
<rect width="24" height="24" rx="2" fill="#FFF6E6"/>
<path fill-rule="evenodd" clip-rule="evenodd" d="M14.2623 15.6759L8.32456 9.73819L9.73877 8.32397L15.6765 14.2617L14.2623 15.6759Z" fill="#FF7D00"/>
<path fill-rule="evenodd" clip-rule="evenodd" d="M8.32382 14.2618L14.2616 8.32407L15.6758 9.73828L9.73804 15.676L8.32382 14.2618Z" fill="#FF7D00"/>
<path fill-rule="evenodd" clip-rule="evenodd" d="M15.1857 17C17.065 17 18.9644 14.9942 18.9644 12H20.9644C20.9644 15.6556 18.566 19 15.1857 19H4.03564V17H15.1857Z" fill="#FF7D00"/>
<path fill-rule="evenodd" clip-rule="evenodd" d="M8.81426 7C6.93497 7 5.03564 9.00577 5.03564 12H3.03564C3.03564 8.34443 5.43405 5 8.81426 5H19.9644V7H8.81426Z" fill="#FF7D00"/>
<path fill-rule="evenodd" clip-rule="evenodd" d="M5.45001 18.0001L7.7429 15.7072L6.32869 14.293L2.62158 18.0001L6.32869 21.7072L7.7429 20.293L5.45001 18.0001Z" fill="#FF7D00"/>
<path fill-rule="evenodd" clip-rule="evenodd" d="M18.55 5.99992L16.2571 8.29282L17.6713 9.70703L21.3784 5.99992L17.6713 2.29282L16.2571 3.70703L18.55 5.99992Z" fill="#FF7D00"/>
</svg>
