<?xml version="1.0" standalone="no"?><!DOCTYPE svg PUBLIC "-//W3C//DTD SVG 1.1//EN" "http://www.w3.org/Graphics/SVG/1.1/DTD/svg11.dtd"><svg t="1691030996990" class="icon" viewBox="0 0 1024 1024" version="1.1" xmlns="http://www.w3.org/2000/svg" p-id="24773" xmlns:xlink="http://www.w3.org/1999/xlink" width="200" height="200"><path d="M599.04 1023.414857H248.539429c-46.811429 0-90.843429-19.017143-123.904-53.613714a186.368 186.368 0 0 1-51.2-129.682286v-656.822857C73.362286 82.139429 151.990857 0 248.685714 0h350.354286c96.621714 0 175.323429 82.066286 175.323429 183.003429v144.384h-70.875429V183.003429c0-60.123429-46.811429-109.056-104.448-109.056H248.539429c-57.490286 0-104.374857 49.005714-104.374858 109.275428v656.896c0 60.269714 46.811429 109.348571 104.374858 109.348572h350.354285c57.563429 0 104.448-49.005714 104.448-109.056V694.272h70.948572v145.993143c0.073143 100.937143-78.628571 183.149714-175.250286 183.149714z" fill="#5F6269" p-id="24774"></path><path d="M563.858286 475.136h349.988571c19.382857 0 35.035429 16.384 35.035429 36.498286a35.766857 35.766857 0 0 1-35.035429 36.498285H563.931429a35.766857 35.766857 0 0 1-34.962286-36.571428c0-20.041143 15.579429-36.425143 34.962286-36.425143z" fill="#5F6269" p-id="24775"></path><path d="M791.625143 589.604571l98.962286-103.204571a33.938286 33.938286 0 0 1 49.517714 0 37.595429 37.595429 0 0 1 0 51.565714L841.142857 641.243429a33.938286 33.938286 0 0 1-49.517714 0 37.814857 37.814857 0 0 1 0-51.638858z" fill="#5F6269" p-id="24776"></path><path d="M791.625143 435.712l98.962286 103.277714c13.750857 14.262857 35.84 14.262857 49.517714 0a37.595429 37.595429 0 0 0 0-51.638857L841.142857 384.073143a33.938286 33.938286 0 0 0-49.517714 0 37.814857 37.814857 0 0 0 0 51.638857z" fill="#5F6269" p-id="24777"></path></svg>