<?xml version="1.0" standalone="no"?><!DOCTYPE svg PUBLIC "-//W3C//DTD SVG 1.1//EN" "http://www.w3.org/Graphics/SVG/1.1/DTD/svg11.dtd"><svg t="1691142071272" class="icon" viewBox="0 0 1024 1024" version="1.1" xmlns="http://www.w3.org/2000/svg" p-id="18119" xmlns:xlink="http://www.w3.org/1999/xlink" width="200" height="200"><path d="M979.2 806.4H896l-192-313.6c0-6.4 6.4-6.4 6.4-12.8v-128c0-19.2-12.8-32-32-32h-128c-6.4 0-12.8 0-19.2 6.4L217.6 153.6V64c0-19.2-12.8-32-32-32h-128C38.4 32 25.6 44.8 25.6 64v128c0 19.2 12.8 32 32 32h32v582.4h-19.2c-19.2 0-32 12.8-32 32v128c0 19.2 12.8 32 32 32h128c19.2 0 32-12.8 32-32v-19.2h588.8v12.8c0 19.2 12.8 32 32 32h128c19.2 0 32-12.8 32-32v-128c0-12.8-12.8-25.6-32-25.6z m-416-384v-57.6H672v102.4H563.2v-44.8zM70.4 179.2V76.8h102.4v102.4H70.4z m115.2 697.6v70.4H76.8v-102.4h102.4v32z m633.6-38.4v38.4H230.4v-38.4c0-19.2-12.8-32-32-32h-38.4V224h25.6c6.4 0 12.8 0 19.2-6.4l313.6 179.2v83.2c0 19.2 12.8 32 32 32H640l192 307.2c-6.4 0-12.8 6.4-12.8 19.2z m147.2 76.8v32h-102.4v-96h108.8v64z" fill="" p-id="18120"></path></svg>