<?xml version="1.0" standalone="no"?><!DOCTYPE svg PUBLIC "-//W3C//DTD SVG 1.1//EN" "http://www.w3.org/Graphics/SVG/1.1/DTD/svg11.dtd"><svg t="1691147600039" class="icon" viewBox="0 0 1024 1024" version="1.1" xmlns="http://www.w3.org/2000/svg" p-id="63609" xmlns:xlink="http://www.w3.org/1999/xlink" width="200" height="200"><path d="M912 192H328c-4.4 0-8 3.6-8 8v56c0 4.4 3.6 8 8 8h584c4.4 0 8-3.6 8-8v-56c0-4.4-3.6-8-8-8zM912 476H328c-4.4 0-8 3.6-8 8v56c0 4.4 3.6 8 8 8h584c4.4 0 8-3.6 8-8v-56c0-4.4-3.6-8-8-8zM912 760H328c-4.4 0-8 3.6-8 8v56c0 4.4 3.6 8 8 8h584c4.4 0 8-3.6 8-8v-56c0-4.4-3.6-8-8-8z" p-id="63610"></path><path d="M160 228m-56 0a56 56 0 1 0 112 0 56 56 0 1 0-112 0Z" p-id="63611"></path><path d="M160 512m-56 0a56 56 0 1 0 112 0 56 56 0 1 0-112 0Z" p-id="63612"></path><path d="M160 796m-56 0a56 56 0 1 0 112 0 56 56 0 1 0-112 0Z" p-id="63613"></path></svg>