<?xml version="1.0" standalone="no"?><!DOCTYPE svg PUBLIC "-//W3C//DTD SVG 1.1//EN" "http://www.w3.org/Graphics/SVG/1.1/DTD/svg11.dtd"><svg t="1690973886767" class="icon" viewBox="0 0 1024 1024" version="1.1" xmlns="http://www.w3.org/2000/svg" p-id="27318" xmlns:xlink="http://www.w3.org/1999/xlink" width="200" height="200"><path d="M848.622334 56.531995a192.72271 192.72271 0 0 0-272.381431 0L303.859473 328.913425a192.72271 192.72271 0 0 0 272.38143 272.381431l48.180678-48.180678a32.120452 32.120452 0 0 0 0-45.611041 32.120452 32.120452 0 0 0-44.968632 0l-48.823087 48.823086a128.481807 128.481807 0 0 1-181.159348-181.801756l272.381431-272.381431a128.481807 128.481807 0 1 1 181.801756 181.159348l-55.247177 55.889586a31.478043 31.478043 0 1 0 44.968633 44.968632l55.247177-55.247177a192.72271 192.72271 0 0 0 0-272.38143z" p-id="27319"></path><path d="M447.759097 422.705144l-64.240904 64.240904a32.120452 32.120452 0 1 0 45.611042 45.611041l64.240903-64.240903a128.481807 128.481807 0 1 1 181.801757 181.159347l-273.02384 273.02384a128.481807 128.481807 0 1 1-181.159347-181.801757l46.895859-46.895859a32.762861 32.762861 0 0 0 0-45.611042 32.120452 32.120452 0 0 0-45.611041 0l-46.89586 46.89586a192.72271 192.72271 0 0 0 272.381431 272.38143l272.38143-272.38143a192.72271 192.72271 0 1 0-272.38143-272.381431z" p-id="27320"></path></svg>