<?xml version="1.0" standalone="no"?><!DOCTYPE svg PUBLIC "-//W3C//DTD SVG 1.1//EN" "http://www.w3.org/Graphics/SVG/1.1/DTD/svg11.dtd"><svg t="1691030547721" class="icon" viewBox="0 0 1024 1024" version="1.1" xmlns="http://www.w3.org/2000/svg" p-id="10666" xmlns:xlink="http://www.w3.org/1999/xlink" width="200" height="200"><path d="M512.1 542.4c-16.8 0-30.4-13.6-30.4-30.4V297.9c0-16.8 13.6-30.4 30.4-30.4 16.8 0 30.4 13.6 30.4 30.4V512c0 16.8-13.6 30.4-30.4 30.4z" p-id="10667"></path><path d="M679.7 675.5c-6.6 0-13.3-2.2-18.9-6.6l-167.7-133c-13.2-10.4-15.4-29.6-4.9-42.7 10.4-13.1 29.6-15.4 42.7-4.9l167.7 133c13.2 10.4 15.4 29.6 4.9 42.7-6 7.5-14.8 11.5-23.8 11.5z" p-id="10668"></path><path d="M512 927.7C282.6 927.7 96 741.3 96 512S282.6 96.3 512 96.3 928 282.8 928 512 741.4 927.7 512 927.7z m0-770.6c-195.8 0-355.2 159.2-355.2 354.9S316.2 866.9 512 866.9 867.2 707.7 867.2 512 707.8 157.1 512 157.1z" p-id="10669"></path></svg>