<svg t="1690419253715" class="icon" viewBox="0 0 1024 1024" version="1.1" xmlns="http://www.w3.org/2000/svg" p-id="3899" width="200" height="200"><path d="M573.62 811.86H414.69c-17.67 0-32-14.33-32-32s14.33-32 32-32h158.93c51.07 0 99.25-20.05 135.67-56.47 36.41-36.41 56.47-84.59 56.47-135.67s-20.05-99.25-56.47-135.67c-36.41-36.41-84.59-56.47-135.67-56.47H321.69c-17.67 0-32-14.33-32-32s14.33-32 32-32h251.93c68.17 0 132.42 26.71 180.92 75.21s75.21 112.75 75.21 180.92c0 68.17-26.71 132.42-75.21 180.92-48.5 48.52-112.75 75.23-180.92 75.23z" p-id="3900" data-spm-anchor-id="a313x.7781069.0.i0" class="selected"></path><path d="M232.32 349.82c-9.84-14.68-5.91-34.56 8.78-44.4l137.84-92.34c14.68-9.84 34.56-5.91 44.4 8.78 9.84 14.68 5.91 34.56-8.78 44.4L276.72 358.6c-14.68 9.84-34.56 5.91-44.4-8.78z" p-id="3901"></path><path d="M378.94 450.78L241.1 358.44c-14.68-9.84-18.61-29.71-8.78-44.4 9.84-14.68 29.71-18.61 44.4-8.78l137.84 92.34c14.68 9.84 18.61 29.71 8.78 44.4-9.84 14.69-29.71 18.62-44.4 8.78z" p-id="3902"></path></svg>