<svg t="1690423390228" class="icon" viewBox="0 0 1024 1024" version="1.1" xmlns="http://www.w3.org/2000/svg" p-id="15221" width="200" height="200"><path d="M791.765333 176.768a100.821333 100.821333 0 0 1-93.866666 67.029333H362.666667a94.677333 94.677333 0 0 1-93.866667-67.029333H195.029333v737.536h670.506667V176.768zM268.8 109.696A100.821333 100.821333 0 0 1 362.666667 42.666667h335.232a94.677333 94.677333 0 0 1 93.866666 67.029333h73.770667a63.36 63.36 0 0 1 67.029333 67.029333v737.578667A63.36 63.36 0 0 1 865.536 981.333333H195.029333A63.36 63.36 0 0 1 128 914.304V176.768a63.36 63.36 0 0 1 67.029333-67.072z m93.866667 0a31.658667 31.658667 0 0 0-33.536 33.536 31.658667 31.658667 0 0 0 33.536 33.536h335.232a31.658667 31.658667 0 0 0 33.536-33.536 31.658667 31.658667 0 0 0-33.536-33.536z m87.168 583.338667l261.504-261.504a33.194667 33.194667 0 0 1 46.933333 46.933333l-281.6 281.6a32.426667 32.426667 0 0 1-46.933333 0l-140.8-140.8a33.194667 33.194667 0 1 1 46.933333-46.933333z" p-id="15222"></path></svg>