<svg t="1692085857218" class="icon" viewBox="0 0 1024 1024" version="1.1" xmlns="http://www.w3.org/2000/svg" p-id="2495" width="200" height="200"><path d="M512 85.333333c30.464 0 60.544 3.2 89.856 9.472a32 32 0 0 1 15.957333 53.888 106.709333 106.709333 0 0 0 51.456 179.242667 32 32 0 0 1 24.618667 34.602667 106.666667 106.666667 0 0 0 186.026667 81.408 32 32 0 0 1 55.765333 17.450666c2.005333 16.64 2.986667 33.578667 2.986667 50.602667 0 235.648-191.018667 426.666667-426.666667 426.666667S85.333333 747.648 85.333333 512 276.352 85.333333 512 85.333333z m0 64a362.666667 362.666667 0 1 0 361.216 395.306667l0.810667-10.965333 0.298666-6.698667-8.277333 3.754667c-14.08 5.930667-29.013333 9.941333-44.501333 11.946666l-11.690667 1.024-9.856 0.298667a170.709333 170.709333 0 0 1-168.789333-145.152l-1.066667-8.576-0.597333-7.978667-6.186667-2.56a170.837333 170.837333 0 0 1-99.754667-137.984l-0.725333-9.216-0.213333-8.533333c0-19.072 3.157333-37.632 9.130666-55.125333l3.882667-10.368 3.626667-8.106667-11.776-0.725333L512 149.333333zM640 682.666667a42.666667 42.666667 0 1 1 0 85.333333 42.666667 42.666667 0 0 1 0-85.333333z m-298.666667-42.666667a42.666667 42.666667 0 1 1 0 85.333333 42.666667 42.666667 0 0 1 0-85.333333z m170.666667-170.666667a42.666667 42.666667 0 1 1 0 85.333334 42.666667 42.666667 0 0 1 0-85.333334zM298.666667 341.333333a42.666667 42.666667 0 1 1 0 85.333334 42.666667 42.666667 0 0 1 0-85.333334z" fill="#212121" p-id="2496"></path></svg>