<svg width="24" height="24" viewBox="0 0 24 24" fill="none" xmlns="http://www.w3.org/2000/svg">
<path d="M22 6C22 4.89543 21.1046 4 20 4H4C2.89543 4 2 4.89543 2 6V18C2 19.1046 2.89543 20 4 20H20C21.1046 20 22 19.1046 22 18V6Z" fill="#447DFD"/>
<path d="M12.2356 16.778L15.9207 10.9456C16.0653 10.7164 16.0067 10.4067 15.7893 10.254C15.7118 10.1995 15.6207 10.1704 15.5275 10.1704H12.63V6.49867C12.63 6.22333 12.4185 6 12.1576 6C11.9995 6 11.8521 6.0833 11.7644 6.22203L8.07935 12.0544C7.93467 12.2836 7.99334 12.5931 8.21052 12.746C8.28811 12.8006 8.37929 12.8297 8.47256 12.8297H11.37V16.5013C11.37 16.7767 11.5815 17 11.8424 17C12.0005 17 12.1481 16.9167 12.2356 16.778Z" fill="white"/>
</svg>
