<svg width="24" height="24" viewBox="0 0 24 24" fill="none" xmlns="http://www.w3.org/2000/svg">
<path d="M17.1667 9C19.0997 9 20.6667 7.43298 20.6667 5.5C20.6667 3.56701 19.0997 2 17.1667 2C15.2338 2 13.6667 3.56701 13.6667 5.5C13.6667 7.43298 15.2338 9 17.1667 9Z" fill="#CACCD6"/>
<path d="M17.7501 23C20.0052 23 21.8334 21.1718 21.8334 18.9166C21.8334 16.6615 20.0052 14.8333 17.7501 14.8333C15.4949 14.8333 13.6667 16.6615 13.6667 18.9166C13.6667 21.1718 15.4949 23 17.7501 23Z" fill="#CACCD6"/>
<path d="M6.5 18C9.53754 18 12 15.5375 12 12.5C12 9.46246 9.53754 7 6.5 7C3.46246 7 1 9.46246 1 12.5C1 15.5375 3.46246 18 6.5 18Z" fill="#CACCD6"/>
<path d="M6.5 15C7.8807 15 9 13.8807 9 12.5C9 11.1193 7.8807 10 6.5 10C5.1193 10 4 11.1193 4 12.5C4 13.8807 5.1193 15 6.5 15Z" fill="#2A325A"/>
<path d="M15.7174 6.61987L8.57642 10.9463" stroke="#CACCD6" stroke-width="2"/>
<path d="M8.57593 13.9461L16.1001 18.3922" stroke="#CACCD6" stroke-width="2"/>
</svg>
