<svg width="24" height="24" viewBox="0 0 24 24" fill="none" xmlns="http://www.w3.org/2000/svg">
<rect width="24" height="24" rx="2" fill="#F8FCFF"/>
<path d="M9 11.5C9 12.8807 7.88071 14 6.5 14C5.11929 14 4 12.8807 4 11.5C4 10.1193 5.11929 9 6.5 9C7.88071 9 9 10.1193 9 11.5Z" fill="#F8FCFF"/>
<path fill-rule="evenodd" clip-rule="evenodd" d="M6.5 10C5.67157 10 5 10.6716 5 11.5C5 12.3284 5.67157 13 6.5 13C7.32843 13 8 12.3284 8 11.5C8 10.6716 7.32843 10 6.5 10ZM3 11.5C3 9.567 4.567 8 6.5 8C8.433 8 10 9.567 10 11.5C10 13.433 8.433 15 6.5 15C4.567 15 3 13.433 3 11.5Z" fill="#447DFD"/>
<path d="M18 5.5C18 6.88071 16.8807 8 15.5 8C14.1193 8 13 6.88071 13 5.5C13 4.11929 14.1193 3 15.5 3C16.8807 3 18 4.11929 18 5.5Z" fill="#F8FCFF"/>
<path fill-rule="evenodd" clip-rule="evenodd" d="M15.5 4C14.6716 4 14 4.67157 14 5.5C14 6.32843 14.6716 7 15.5 7C16.3284 7 17 6.32843 17 5.5C17 4.67157 16.3284 4 15.5 4ZM12 5.5C12 3.567 13.567 2 15.5 2C17.433 2 19 3.567 19 5.5C19 7.433 17.433 9 15.5 9C13.567 9 12 7.433 12 5.5Z" fill="#447DFD"/>
<path d="M18 17.5C18 18.8807 16.8807 20 15.5 20C14.1193 20 13 18.8807 13 17.5C13 16.1193 14.1193 15 15.5 15C16.8807 15 18 16.1193 18 17.5Z" fill="#F8FCFF"/>
<path fill-rule="evenodd" clip-rule="evenodd" d="M15.5 16C14.6716 16 14 16.6716 14 17.5C14 18.3284 14.6716 19 15.5 19C16.3284 19 17 18.3284 17 17.5C17 16.6716 16.3284 16 15.5 16ZM12 17.5C12 15.567 13.567 14 15.5 14C17.433 14 19 15.567 19 17.5C19 19.433 17.433 21 15.5 21C13.567 21 12 19.433 12 17.5Z" fill="#447DFD"/>
<path fill-rule="evenodd" clip-rule="evenodd" d="M13.5999 7.79995L9.5999 10.8L8.3999 9.19995L12.3999 6.19995L13.5999 7.79995Z" fill="#447DFD"/>
<path fill-rule="evenodd" clip-rule="evenodd" d="M14.6249 16.219L9.62488 12.219L8.37549 13.7808L13.3755 17.7808L14.6249 16.219Z" fill="#447DFD"/>
</svg>
