<svg t="1691630107076" class="icon" viewBox="0 0 1024 1024" version="1.1" xmlns="http://www.w3.org/2000/svg" p-id="6446" width="200" height="200"><path d="M860.2 675.8c-55 0-103.4 27.3-133.1 68.9L326 528.4c0.6-5.5 1.7-10.8 1.7-16.4 0-5.6-1.1-11-1.7-16.5l401-216.3c29.7 41.6 78.1 68.9 133.1 68.9 90.5 0 163.8-73.4 163.8-163.8 0-90.5-73.4-163.8-163.8-163.8S696.3 93.8 696.3 184.3c0 4.7 1 9.2 1.4 13.8l-402.3 217c-29.8-40.4-77.4-67-131.5-67C73.4 348.2 0 421.5 0 512s73.4 163.8 163.8 163.8c54.1 0 101.7-26.6 131.5-67l402.3 217c-0.4 4.6-1.4 9.1-1.4 13.8 0 90.5 73.4 163.8 163.8 163.8s164-73.2 164-163.7-73.4-163.9-163.8-163.9z m0-570c43.3 0 78.5 35.2 78.5 78.5s-35.2 78.5-78.5 78.5-78.5-35.2-78.5-78.5 35.2-78.5 78.5-78.5zM163.8 590.5c-43.3 0-78.5-35.2-78.5-78.5s35.2-78.5 78.5-78.5 78.5 35.2 78.5 78.5-35.2 78.5-78.5 78.5z m696.4 327.7c-43.3 0-78.5-35.2-78.5-78.5s35.2-78.5 78.5-78.5 78.5 35.2 78.5 78.5-35.3 78.5-78.5 78.5z" p-id="6447"></path></svg>