<svg t="1690420875119" class="icon" viewBox="0 0 1024 1024" version="1.1" xmlns="http://www.w3.org/2000/svg" p-id="4883" width="200" height="200"><path d="M256 128a64 64 0 1 1 128 0 64 64 0 0 1-128 0z m384 0a64 64 0 1 1 128 0 64 64 0 0 1-128 0zM256 384a64 64 0 1 1 128 0 64 64 0 0 1-128 0z m384 0a64 64 0 1 1 128 0 64 64 0 0 1-128 0z m-384 256a64 64 0 1 1 128 0 64 64 0 0 1-128 0z m384 0a64 64 0 1 1 128 0 64 64 0 0 1-128 0z m-320 192a64 64 0 1 0 0 128 64 64 0 0 0 0-128z m320 64a64 64 0 1 1 128 0 64 64 0 0 1-128 0z" fill="#000000" fill-opacity=".9" p-id="4884"></path></svg>