<?xml version="1.0" standalone="no"?><!DOCTYPE svg PUBLIC "-//W3C//DTD SVG 1.1//EN" "http://www.w3.org/Graphics/SVG/1.1/DTD/svg11.dtd"><svg t="1684376450058" class="icon" viewBox="0 0 1024 1024" version="1.1" xmlns="http://www.w3.org/2000/svg" p-id="15342" width="16" height="16" xmlns:xlink="http://www.w3.org/1999/xlink"><path d="M299.093333 435.498667h-40.277333l-21.973333 112.981333h35.754666c23.722667 0 41.386667-4.48 52.992-13.397333 11.605333-8.96 19.413333-23.850667 23.466667-44.757334 3.925333-20.053333 2.133333-34.218667-5.290667-42.453333-7.466667-8.234667-22.314667-12.373333-44.672-12.373333z" fill="" p-id="15343"></path><path d="M512 242.688C229.248 242.688 0 363.264 0 512s229.248 269.354667 512 269.354667S1024 660.736 1024 512c0-148.736-229.248-269.312-512-269.312z m-139.093333 317.909333c-11.136 10.666667-24.533333 18.688-39.125334 23.509334-14.336 4.608-32.64 6.997333-54.826666 6.997333H228.565333l-13.952 71.722667H155.818667l52.48-269.909334h113.066666c34.005333 0 58.794667 8.917333 74.410667 26.794667 15.616 17.834667 20.309333 42.752 14.08 74.752a121.002667 121.002667 0 0 1-13.013333 36.138667c-6.101333 10.88-14.08 20.906667-23.936 29.994666z m171.690666 30.506667l23.168-119.424c2.688-13.568 1.664-22.869333-2.901333-27.776-4.565333-4.949333-14.336-7.424-29.312-7.424H488.96l-30.037333 154.666667H400.554667l52.48-269.952h58.325333l-13.952 71.765333h51.968c32.725333 0 55.253333 5.717333 67.669333 17.109333s16.128 29.866667 11.221334 55.424l-24.405334 125.610667h-59.264z m324.138667-96.64a118.698667 118.698667 0 0 1-13.013333 36.138667c-6.101333 10.88-14.08 20.906667-23.936 29.994666a104.106667 104.106667 0 0 1-39.125334 23.509334c-14.336 4.608-32.64 6.997333-54.869333 6.997333h-50.346667l-13.952 71.765333h-58.794666l52.48-269.909333h113.024c34.005333 0 58.794667 8.917333 74.410666 26.794667 15.616 17.792 20.352 42.709333 14.122667 74.709333z" fill="" p-id="15344"></path><path d="M758.016 435.498667h-40.234667l-22.016 112.981333h35.754667c23.765333 0 41.429333-4.48 52.992-13.397333 11.605333-8.96 19.413333-23.850667 23.509333-44.757334 3.925333-20.053333 2.090667-34.218667-5.333333-42.453333s-22.357333-12.373333-44.672-12.373333z" fill="" p-id="15345"></path></svg>