<?xml version="1.0" standalone="no"?><!DOCTYPE svg PUBLIC "-//W3C//DTD SVG 1.1//EN" "http://www.w3.org/Graphics/SVG/1.1/DTD/svg11.dtd"><svg t="1691146815620" class="icon" viewBox="0 0 1024 1024" version="1.1" xmlns="http://www.w3.org/2000/svg" p-id="39977" xmlns:xlink="http://www.w3.org/1999/xlink" width="200" height="200"><path d="M884.229 977.232 232.846 977.232c-77.137 0-139.577-62.44-139.577-139.578L93.269 651.576l93.075 0 0 60.832c0 94.904 76.844 171.821 171.821 171.821l400.818 0c94.83 0 171.82-76.917 171.82-171.821L930.803 311.591c0-94.904-76.99-171.821-171.82-171.821L358.166 139.77c-94.977 0-171.821 76.917-171.821 171.821l0 14.257L93.196 325.848 93.196 186.345c0-77.137 62.44-139.577 139.577-139.577l651.383 0c77.137 0 139.65 62.44 139.65 139.577l0 651.31C1023.807 914.792 961.293 977.232 884.229 977.232zM465.426 279.348 744.653 512 465.499 698.151 465.499 558.574 0.194 558.574 0.194 418.997l465.232 0L465.426 279.348z" fill="#272636" p-id="39978"></path></svg>