<svg t="1690423246490" class="icon" viewBox="0 0 1024 1024" version="1.1" xmlns="http://www.w3.org/2000/svg" p-id="11752" width="200" height="200"><path d="M598.760875 692.118021a23.241035 23.241035 0 0 0-32.537449 0L483.020521 772.996823a43.693146 43.693146 0 0 0 0 59.96187l80.878802 85.527008a23.705856 23.705856 0 0 0 16.733545 6.972311 23.241035 23.241035 0 0 0 16.733545-39.044939l-78.554698-83.202905 78.089877-78.089877a23.241035 23.241035 0 0 0 1.859283-33.00227zM825.593376 590.322288a23.705856 23.705856 0 0 0-30.678166 12.550159l-155.714934 389.054925a22.776214 22.776214 0 0 0 12.550159 30.213345 21.381752 21.381752 0 0 0 8.831593 0 22.311394 22.311394 0 0 0 21.381752-14.874262l156.179755-388.590105a22.776214 22.776214 0 0 0-12.550159-28.354062zM994.32329 772.996823l-80.878802-80.878802a23.241035 23.241035 0 0 0-33.002269 33.00227l78.554698 78.089877-80.878802 83.202905a22.776214 22.776214 0 0 0 0 32.537449 21.846573 21.846573 0 0 0 16.268725 6.50749 23.705856 23.705856 0 0 0 16.733545-6.972311L994.32329 832.029051a43.693146 43.693146 0 0 0 0-59.032228z" p-id="11753"></path><path d="M64.681892 910.118929V76.230595A29.748525 29.748525 0 0 1 94.430417 46.48207h585.674081l193.830231 197.083976v254.256923h46.48207V224.508398L699.162146 0h-604.266909A76.695415 76.695415 0 0 0 18.199822 76.230595v833.888334a76.695415 76.695415 0 0 0 76.230595 76.230594h303.992737v-46.48207H94.430417a29.748525 29.748525 0 0 1-29.748525-29.748524z" p-id="11754"></path><path d="M171.125832 194.295052h499.217431v46.48207H171.125832zM180.887067 372.786201h586.603722v46.48207H180.887067zM171.125832 547.558783H408.649209v46.48207H171.125832z" p-id="11755"></path></svg>