<?xml version="1.0" standalone="no"?><!DOCTYPE svg PUBLIC "-//W3C//DTD SVG 1.1//EN" "http://www.w3.org/Graphics/SVG/1.1/DTD/svg11.dtd"><svg t="1692074810793" class="icon" viewBox="0 0 1024 1024" version="1.1" xmlns="http://www.w3.org/2000/svg" p-id="11733" xmlns:xlink="http://www.w3.org/1999/xlink" width="200" height="200"><path d="M652.3 622.8l-81 162h81V908l82.2-163.2h-82.2v-122z m139.2 113c-3.4-20.5-12.6-33.1-13.7-34.2-3.4-4.6-8-6.8-14.8-6.8-10.3 0-18.3 8-18.3 18.3 0 3.4 1.1 8 3.4 10.3 0 0 4.6 8 6.8 19.4 3.4 18.3-1.1 37.7-12.6 57.1-2.3 2.3-2.3 5.7-2.3 9.1 0 10.3 8 18.3 18.3 18.3 6.8 0 12.6-3.4 14.8-9.1 21.8-34.5 21.8-64.2 18.4-82.4z m68.5 47.9c5.7-22.8 4.6-46.8-1.1-68.5-10.3-37.7-35.4-60.5-36.5-61.6-3.4-3.4-6.8-4.6-12.6-4.6-10.3 0-18.3 8-18.3 18.3 0 5.7 2.3 10.3 5.7 13.7 0 0 18.3 18.3 26.2 46.8 10.3 37.7-2.3 77.6-37.7 118.7-2.3 3.4-4.6 6.8-4.6 11.4 0 10.3 8 18.3 18.3 18.3 5.7 0 10.3-2.3 13.7-5.7 25.2-29.7 40-58.3 46.9-86.8z m74.1-52.5c-5.7-41.1-24-82.2-53.6-121-3.1-4.4-8.3-7-13.7-6.8-10.3 0-18.3 8-18.3 18.3 0 4.6 1.1 8 3.4 11.4 46.8 59.3 59.3 121 36.5 183.7-17.1 47.9-50.2 78.7-50.2 78.7-3.4 3.4-5.7 8-5.7 12.6 0 10.3 8 18.3 18.3 18.3 4.6 0 9.1-2.3 12.6-4.6 1.1-1.1 38.8-35.4 59.3-91.3 11.4-33.1 14.9-66.2 11.4-99.3zM510.8 851c-4.6 0-8 1.1-11.4 1.1V675.3H512c11.4 0 21.7-9.1 21.7-20.5s-9.1-19.4-19.4-20.5h-14.8V525.8h152.9v12.6c0 11.4 9.1 21.7 20.5 21.7 10.3 0 19.4-8 20.5-19.4v-16H828c0 4.6-1.1 9.1-1.1 13.7-1.1 5.7 1.1 11.4 4.6 16 3.4 4.6 9.1 6.8 14.8 6.8 10.3 0 19.4-8 19.4-18.3 1.1-12.6 2.3-25.1 2.3-37.7 1.1-52.5-9.1-103.8-30.8-151.8-20.5-46.8-47.9-89-84.4-124.4-35.8-35.7-78-64.4-124.4-84.4-47.9-20.5-98.1-30.8-151.8-30.8-49.1-1.1-101.6 10.3-149.5 29.7-46.8 20.5-89 47.9-124.4 84.4-14.8 14.8-26.2 28.5-37.7 43.4 0 0-1.1 1.1-1.1 2.3-18.3 24-32 50.2-44.5 78.7-20.5 48-31 99.6-30.8 151.8 0 52.5 10.3 103.8 30.8 151.8 20.5 46.8 47.9 89 84.4 124.4 36.5 35.4 77.6 63.9 124.4 84.4 59.3 25.1 124.4 35.4 188.3 28.5 11.4-1.1 19.4-10.3 19.4-20.5 0-5.7-2.3-11.4-6.8-16-5.8-4.5-11.5-6.8-18.3-5.7z m261.3-538.6c33.1 50.2 53.6 109.5 57.1 172.3H694.5c-1.1-47.9-8-93.6-17.1-136.9 34.2-10.3 67.3-21.7 94.7-35.4z m-45.6-55.9c6.8 6.8 13.7 14.8 20.5 21.7-24 11.4-50.2 20.5-81 28.5-9.1-26.2-19.4-51.3-30.8-74.2s-25.1-42.2-38.8-58.2c47.9 17.2 92.4 44.6 130.1 82.2z m-226-99.3c14.8 3.4 28.5 10.3 42.2 21.7 20.5 17.1 39.9 41.1 55.9 73 10.3 20.5 19.4 41.1 26.2 63.9-41.1 8-83.3 12.6-125.5 13.7V157.2h1.2z m0 213.4c47.9-1.1 93.6-5.7 136.9-14.8 9.1 39.9 14.8 83.3 16 127.8H500.5v-113zM231.2 256.5c37.7-37.7 82.2-65 131.2-82.2-14.8 16-27.4 36.5-38.8 58.2-11.4 22.8-21.7 47.9-30.8 74.2-30.8-8-57.1-17.1-81-28.5 6.9-6.8 12.6-13.7 19.4-21.7z m-44.5 55.9c27.4 14.8 59.3 26.2 95.9 35.4-10.3 43.4-16 89-17.1 136.9H130.8c2.3-62.7 22.8-122.1 55.9-172.3z m-2.3 381.2c-32-50.2-51.3-108.4-54.8-168.9h134.7c1.1 44.5 6.8 89 16 132.4-35.4 10.2-67.3 22.8-95.9 36.5z m46.8 58.2c-7.8-7.8-15.1-16.2-21.7-25.1 26.2-12.6 53.6-22.8 82.2-29.7 9.1 28.5 19.4 54.8 32 78.7 11.4 22.8 25.1 42.2 38.8 58.2-49.3-17.3-94.1-45.4-131.3-82.1zM459.4 851c-14.8-3.4-28.5-10.3-42.2-21.7-20.5-17.1-39.9-41.1-55.9-73-10.3-20.5-20.5-43.4-27.4-68.5 38.8-8 82.2-12.6 125.5-13.7V851z m0-216.8c-47.9 1.1-93.6 5.7-138.1 14.8-9.1-37.7-14.8-79.9-14.8-123.2h152.9v108.4z m0-150.6H306.5c1.1-44.5 6.8-87.9 16-127.8 43.4 9.1 89 13.7 136.9 14.8v113z m0-154.1c-42.2-1.1-83.3-5.7-125.5-13.7 8-22.8 16-44.5 26.2-63.9 16-32 35.4-55.9 55.9-73 13.7-11.4 27.4-18.3 42.2-21.7v172.3h1.2z" p-id="11734"></path></svg>