<svg t="1690421959273" class="icon" viewBox="0 0 1024 1024" version="1.1" xmlns="http://www.w3.org/2000/svg" p-id="8189" width="200" height="200"><path d="M176.608 161.6a16 16 0 0 1 2.88 31.712l-2.88 0.256h-32a16 16 0 0 0-15.712 13.12l-0.256 2.88v608a16 16 0 0 0 13.12 15.744l2.88 0.256h31.968a16 16 0 0 1 2.88 31.744l-2.88 0.256h-32a48 48 0 0 1-47.744-43.36l-0.224-4.64v-608a48 48 0 0 1 43.36-47.776l4.64-0.224h31.968z m704 0l4.608 0.192A48 48 0 0 1 928.64 209.6v608l-0.224 4.64a48 48 0 0 1-47.776 43.36h-32l-2.88-0.256a16 16 0 0 1 2.88-31.744h32l2.88-0.256a16 16 0 0 0 13.12-15.744v-608l-0.256-2.88a16 16 0 0 0-15.744-13.12h-32l-2.88-0.256a16 16 0 0 1 2.88-31.744h32z" fill="#5D6D7E" p-id="8190"></path><path d="M388.064 672l103.488-143.712c2.976-4.224 7.392-11.072 13.312-20.576l6.4-10.368c6.176 9.92 12.16 19.136 17.984 27.552L633.024 672h67.52l-156.096-217.984 144.832-194.336h-59.328l-82.976 109.44c-12.576 16.288-23.456 31.936-32.64 46.944-6.56-11.84-17.6-28.704-33.184-50.624l-74.816-105.76h-64.96l140.608 197.44L322.56 672h65.536z" fill="#30AD98" p-id="8191"></path><path d="M384 736a32 32 0 1 1 0 64 32 32 0 0 1 0-64z m128 0a32 32 0 1 1 0 64 32 32 0 0 1 0-64z m128 0a32 32 0 1 1 0 64 32 32 0 0 1 0-64z" fill="#95A1AF" p-id="8192"></path></svg>