<svg width="32" height="33" viewBox="0 0 32 33" fill="none" xmlns="http://www.w3.org/2000/svg">
<rect width="32" height="32" transform="translate(0 0.5)" fill="white"/>
<path fill-rule="evenodd" clip-rule="evenodd" d="M7.66675 10.3333H24.3334V18.6666C24.3334 19.7233 24.0419 21.7742 22.857 23.5863C21.6408 25.446 19.5135 27 16.0001 27C12.4842 27 10.3574 25.4327 9.14258 23.5687C7.95875 21.7523 7.66675 19.7024 7.66675 18.6666V10.3333ZM9.16675 11.8333V18.6666C9.16675 19.5 9.41641 21.2417 10.3992 22.7497C11.3511 24.2101 13.016 25.5 16.0001 25.5C18.9866 25.5 20.651 24.219 21.6015 22.7654C22.5832 21.2641 22.8334 19.5234 22.8334 18.6666V11.8333H9.16675Z" fill="#404040"/>
<path fill-rule="evenodd" clip-rule="evenodd" d="M7.88623 11.6136L4.63623 8.36364L5.69689 7.30298L8.94689 10.553L7.88623 11.6136Z" fill="#404040"/>
<path fill-rule="evenodd" clip-rule="evenodd" d="M23.053 10.553L26.303 7.30298L27.3636 8.36364L24.1136 11.6136L23.053 10.553Z" fill="#404040"/>
<path fill-rule="evenodd" clip-rule="evenodd" d="M8.41675 18.875H5.16675V17.375H8.41675V18.875Z" fill="#404040"/>
<path fill-rule="evenodd" clip-rule="evenodd" d="M23.5833 17.375H26.8333V18.875H23.5833V17.375Z" fill="#404040"/>
<path fill-rule="evenodd" clip-rule="evenodd" d="M10.5719 24.6136L7.32189 27.8636L6.26123 26.803L9.51123 23.553L10.5719 24.6136Z" fill="#404040"/>
<path fill-rule="evenodd" clip-rule="evenodd" d="M22.4886 23.553L25.7386 26.803L24.678 27.8636L21.428 24.6136L22.4886 23.553Z" fill="#404040"/>
<path fill-rule="evenodd" clip-rule="evenodd" d="M16.75 11.0833V26.25H15.25V11.0833H16.75Z" fill="#447DFD"/>
<path fill-rule="evenodd" clip-rule="evenodd" d="M21.431 25.2059C20.1548 26.2814 18.3884 26.9999 16 26.9999C13.6311 26.9999 11.8742 26.288 10.6006 25.2222L11.5632 24.0718C12.5452 24.8936 13.9537 25.4999 16 25.4999C18.0655 25.4999 19.4814 24.8873 20.4643 24.0589L21.431 25.2059Z" fill="#404040"/>
<path fill-rule="evenodd" clip-rule="evenodd" d="M10.9167 10.1806C10.9167 7.30256 13.1641 4.91669 16.0001 4.91669C18.8361 4.91669 21.0834 7.30256 21.0834 10.1806V11.8334H10.9167V10.1806ZM16.0001 6.41669C14.0496 6.41669 12.4167 8.07269 12.4167 10.1806V10.3334H19.5834V10.1806C19.5834 8.07269 17.9506 6.41669 16.0001 6.41669Z" fill="#404040"/>
</svg>
