<svg width="32" height="33" viewBox="0 0 32 33" fill="none" xmlns="http://www.w3.org/2000/svg">
<rect width="32" height="32" transform="translate(0 0.5)" fill="white"/>
<path fill-rule="evenodd" clip-rule="evenodd" d="M7.90853 6.40948H24.0914L28.13 11.0423V21.9577L24.0914 26.5905H7.90854L3.86987 21.9577V11.0423L7.90853 6.40948ZM8.59085 7.90948L5.36987 11.6043V21.3957L8.59085 25.0905H23.4091L26.63 21.3957V11.6043L23.4091 7.90948H8.59085Z" fill="#404040"/>
<path fill-rule="evenodd" clip-rule="evenodd" d="M12.0018 10.491L13.0624 11.5516L10.5928 14.0213L13.0624 16.491L12.0018 17.5516L8.47144 14.0213L12.0018 10.491Z" fill="#447DFD"/>
<path fill-rule="evenodd" clip-rule="evenodd" d="M19.9987 15.4484L18.9381 16.509L21.4077 18.9787L18.9381 21.4484L19.9987 22.509L23.5291 18.9787L19.9987 15.4484Z" fill="#404040"/>
<path fill-rule="evenodd" clip-rule="evenodd" d="M20.1021 11.4224L13.1656 22.3798L11.8982 21.5775L18.8347 10.6201L20.1021 11.4224Z" fill="#404040"/>
</svg>
