<svg width="32" height="33" viewBox="0 0 32 33" fill="none" xmlns="http://www.w3.org/2000/svg">
<rect width="32" height="32" transform="translate(0 0.5)" fill="white"/>
<path fill-rule="evenodd" clip-rule="evenodd" d="M26.6111 9.11546C26.6111 9.11535 26.6111 9.11529 27.3611 9.1153C28.1111 9.1153 28.1111 9.11535 28.1111 9.11546L28.1111 24.4528C28.1111 25.287 27.5508 25.9311 26.9022 26.3912C26.2341 26.865 25.316 27.2611 24.249 27.5812C22.1055 28.2242 19.1892 28.6111 16 28.6111C12.8108 28.6111 9.89449 28.2242 7.751 27.5812C6.68402 27.2611 5.76593 26.865 5.09784 26.3912C4.44923 25.9311 3.88893 25.287 3.88893 24.4528L3.88892 9.11595C3.88892 9.11584 3.88892 9.1153 4.63892 9.1153C5.38892 9.1153 5.38892 9.11535 5.38892 9.11546L5.38893 24.4528C5.38893 24.5597 5.46445 24.8122 5.96564 25.1677C6.44735 25.5094 7.19304 25.8477 8.18202 26.1444C10.1504 26.735 12.9147 27.1111 16 27.1111C19.0853 27.1111 21.8496 26.735 23.818 26.1444C24.807 25.8477 25.5527 25.5094 26.0344 25.1677C26.5356 24.8122 26.6111 24.5597 26.6111 24.4528L26.6111 9.11546Z" fill="#404040"/>
<path fill-rule="evenodd" clip-rule="evenodd" d="M8.18201 21.0319C10.1504 21.6225 12.9147 21.9986 16 21.9986C19.0853 21.9986 21.8496 21.6225 23.818 21.0319C24.807 20.7353 25.5527 20.3969 26.0344 20.0552C26.5356 19.6997 26.6111 19.4473 26.6111 19.3403H28.1111C28.1111 20.1745 27.5508 20.8186 26.9022 21.2787C26.2341 21.7526 25.316 22.1486 24.249 22.4687C22.1055 23.1117 19.1892 23.4986 16 23.4986C12.8108 23.4986 9.89449 23.1117 7.75099 22.4687C6.68401 22.1486 5.76592 21.7526 5.09783 21.2787C4.44922 20.8186 3.88892 20.1745 3.88892 19.3403H5.38892C5.38892 19.4473 5.46443 19.6997 5.96562 20.0552C6.44734 20.3969 7.19303 20.7353 8.18201 21.0319Z" fill="#404040"/>
<path fill-rule="evenodd" clip-rule="evenodd" d="M8.18201 15.9195C10.1504 16.51 12.9147 16.8861 16 16.8861C19.0853 16.8861 21.8496 16.51 23.818 15.9195C24.807 15.6228 25.5527 15.2844 26.0344 14.9427C26.5356 14.5872 26.6111 14.3348 26.6111 14.2278H28.1111C28.1111 15.062 27.5508 15.7062 26.9022 16.1662C26.2341 16.6401 25.316 17.0361 24.249 17.3562C22.1055 17.9993 19.1892 18.3861 16 18.3861C12.8108 18.3861 9.89449 17.9993 7.75099 17.3562C6.68401 17.0361 5.76592 16.6401 5.09783 16.1662C4.44922 15.7062 3.88892 15.062 3.88892 14.2278H5.38892C5.38892 14.3348 5.46443 14.5872 5.96562 14.9427C6.44734 15.2844 7.19303 15.6228 8.18201 15.9195Z" fill="#447DFD"/>
<path fill-rule="evenodd" clip-rule="evenodd" d="M5.96562 7.83231C5.46443 8.1878 5.38892 8.44026 5.38892 8.54724C5.38892 8.65422 5.46443 8.90668 5.96562 9.26217C6.44734 9.60384 7.19303 9.94223 8.18201 10.2389C10.1504 10.8294 12.9147 11.2056 16 11.2056C19.0853 11.2056 21.8496 10.8294 23.818 10.2389C24.807 9.94223 25.5527 9.60384 26.0344 9.26217C26.5356 8.90668 26.6111 8.65422 26.6111 8.54724C26.6111 8.44026 26.5356 8.1878 26.0344 7.83231C25.5527 7.49064 24.807 7.15225 23.818 6.85556C21.8496 6.26504 19.0853 5.88892 16 5.88892C12.9147 5.88892 10.1504 6.26504 8.18201 6.85556C7.19303 7.15225 6.44734 7.49064 5.96562 7.83231ZM7.75099 5.41882C9.89449 4.77577 12.8108 4.38892 16 4.38892C19.1892 4.38892 22.1055 4.77577 24.249 5.41882C25.316 5.73891 26.2341 6.13496 26.9022 6.60882C27.5508 7.06887 28.1111 7.71304 28.1111 8.54724C28.1111 9.38144 27.5508 10.0256 26.9022 10.4857C26.2341 10.9595 25.316 11.3556 24.249 11.6757C22.1055 12.3187 19.1892 12.7056 16 12.7056C12.8108 12.7056 9.89449 12.3187 7.75099 11.6757C6.68401 11.3556 5.76592 10.9595 5.09783 10.4857C4.44922 10.0256 3.88892 9.38144 3.88892 8.54724C3.88892 7.71304 4.44922 7.06887 5.09783 6.60882C5.76592 6.13496 6.68401 5.73891 7.75099 5.41882Z" fill="#404040"/>
</svg>
