<svg width="32" height="32" viewBox="0 0 32 32" fill="none" xmlns="http://www.w3.org/2000/svg">
<rect width="32" height="32" fill="white"/>
<path fill-rule="evenodd" clip-rule="evenodd" d="M7.90853 5.90948H24.0914L28.13 10.5423V21.4577L24.0914 26.0905H7.90854L3.86987 21.4577V10.5423L7.90853 5.90948ZM8.59085 7.40948L5.36987 11.1043V20.8957L8.59085 24.5905H23.4091L26.63 20.8957V11.1043L23.4091 7.40948H8.59085Z" fill="#404040"/>
<path d="M16.2356 21.278L19.9207 15.4456C20.0653 15.2164 20.0067 14.9067 19.7893 14.754C19.7118 14.6995 19.6207 14.6704 19.5275 14.6704H16.63V10.9987C16.63 10.7233 16.4185 10.5 16.1576 10.5C15.9995 10.5 15.8521 10.5833 15.7644 10.722L12.0794 16.5544C11.9347 16.7836 11.9933 17.0931 12.2105 17.246C12.2881 17.3006 12.3793 17.3297 12.4726 17.3297H15.37V21.0013C15.37 21.2767 15.5815 21.5 15.8424 21.5C16.0005 21.5 16.1481 21.4167 16.2356 21.278Z" fill="#447DFD"/>
</svg>
