<svg width="32" height="33" viewBox="0 0 32 33" fill="none" xmlns="http://www.w3.org/2000/svg">
<rect width="32" height="32" transform="translate(0 0.5)" fill="white"/>
<path fill-rule="evenodd" clip-rule="evenodd" d="M16.0001 6.20642L28.2704 10.4485L16.0001 14.7957L3.72974 10.4485L16.0001 6.20642ZM8.2704 10.4658L16.0001 13.2043L23.7297 10.4658L16.0001 7.79353L8.2704 10.4658Z" fill="#404040"/>
<path fill-rule="evenodd" clip-rule="evenodd" d="M5.53996 13.5443L16.0001 17.2054L26.4602 13.5443L26.9557 14.9601L16.0001 18.7946L5.04443 14.9601L5.53996 13.5443Z" fill="#447DFD"/>
<path fill-rule="evenodd" clip-rule="evenodd" d="M5.53996 17.5443L16.0001 21.2054L26.4602 17.5443L26.9557 18.9601L16.0001 22.7946L5.04443 18.9601L5.53996 17.5443Z" fill="#404040"/>
<path fill-rule="evenodd" clip-rule="evenodd" d="M5.53996 21.5443L16.0001 25.2054L26.4602 21.5443L26.9557 22.9601L16.0001 26.7946L5.04443 22.9601L5.53996 21.5443Z" fill="#404040"/>
</svg>
