<svg width="32" height="33" viewBox="0 0 32 33" fill="none" xmlns="http://www.w3.org/2000/svg">
<rect width="32" height="32" transform="translate(0 0.5)" fill="white"/>
<path fill-rule="evenodd" clip-rule="evenodd" d="M20 11C21.3807 11 22.5 9.88071 22.5 8.5C22.5 7.11929 21.3807 6 20 6C18.6193 6 17.5 7.11929 17.5 8.5C17.5 9.88071 18.6193 11 20 11ZM20 12.5C22.2091 12.5 24 10.7091 24 8.5C24 6.29086 22.2091 4.5 20 4.5C17.7909 4.5 16 6.29086 16 8.5C16 10.7091 17.7909 12.5 20 12.5Z" fill="#404040"/>
<path fill-rule="evenodd" clip-rule="evenodd" d="M18.5017 11.0574L13.5017 15.5574L12.4983 14.4425L17.4983 9.9425L18.5017 11.0574Z" fill="#404040"/>
<path fill-rule="evenodd" clip-rule="evenodd" d="M19.699 23.1869L13.699 20.5565L14.3013 19.1827L20.3013 21.8131L19.699 23.1869Z" fill="#404040"/>
<path fill-rule="evenodd" clip-rule="evenodd" d="M23 26C24.3807 26 25.5 24.8807 25.5 23.5C25.5 22.1193 24.3807 21 23 21C21.6193 21 20.5 22.1193 20.5 23.5C20.5 24.8807 21.6193 26 23 26ZM23 27.5C25.2091 27.5 27 25.7091 27 23.5C27 21.2909 25.2091 19.5 23 19.5C20.7909 19.5 19 21.2909 19 23.5C19 25.7091 20.7909 27.5 23 27.5Z" fill="#404040"/>
<path fill-rule="evenodd" clip-rule="evenodd" d="M9.5 22C11.7091 22 13.5 20.2091 13.5 18C13.5 15.7909 11.7091 14 9.5 14C7.29086 14 5.5 15.7909 5.5 18C5.5 20.2091 7.29086 22 9.5 22ZM9.5 23.5C12.5376 23.5 15 21.0376 15 18C15 14.9624 12.5376 12.5 9.5 12.5C6.46243 12.5 4 14.9624 4 18C4 21.0376 6.46243 23.5 9.5 23.5Z" fill="#447DFD"/>
</svg>
