<svg width="32" height="33" viewBox="0 0 32 33" fill="none" xmlns="http://www.w3.org/2000/svg">
<rect width="32" height="32" transform="translate(0 0.5)" fill="white"/>
<path fill-rule="evenodd" clip-rule="evenodd" d="M6 28.5V5.5H20.5946L26 11.7162V28.5H6ZM24.5 27V12.2772L19.9111 7H7.5V27H24.5Z" fill="#404040"/>
<path d="M9 9.66745H13.5545V10.3997H11.7327V14.8955H10.8218V10.3997H9V9.66745Z" fill="#447DFD"/>
<path d="M16.18 9.56494C16.834 9.56494 17.3478 9.68942 17.7137 9.94569C18.103 10.2166 18.3288 10.6413 18.3833 11.2124H17.4802C17.4023 10.8903 17.2544 10.6559 17.052 10.5168C16.8495 10.3704 16.5381 10.3045 16.1333 10.3045C15.7829 10.3045 15.5182 10.3484 15.3314 10.4436C15.0978 10.5534 14.9888 10.7365 14.9888 10.9854C14.9888 11.2051 15.1134 11.3882 15.3781 11.52C15.4949 11.5785 15.8141 11.6884 16.3279 11.8421C17.0831 12.0618 17.5658 12.2375 17.7838 12.3547C18.2665 12.6256 18.5078 12.999 18.5078 13.4823C18.5078 13.9509 18.3132 14.3243 17.9239 14.5953C17.5346 14.8589 16.9819 14.998 16.2734 14.998C15.5883 14.998 15.0511 14.8735 14.6696 14.6246C14.2025 14.317 13.9456 13.8338 13.9066 13.1674H14.8098C14.872 13.5628 15.02 13.8484 15.2613 14.0168C15.4793 14.1633 15.8141 14.2438 16.2734 14.2438C16.6783 14.2438 17.0052 14.1779 17.2388 14.0534C17.4724 13.9216 17.5969 13.7532 17.5969 13.5336C17.5969 13.2553 17.4179 13.0356 17.0753 12.8746C16.9663 12.8233 16.6082 12.7061 15.9931 12.5304C15.308 12.3254 14.8798 12.179 14.7163 12.0911C14.2881 11.8495 14.0779 11.498 14.0779 11.0367C14.0779 10.5754 14.2803 10.2093 14.7008 9.94569C15.09 9.68942 15.5805 9.56494 16.18 9.56494Z" fill="#447DFD"/>
<path fill-rule="evenodd" clip-rule="evenodd" d="M8.72827 9.39578H13.826V10.6713H12.0043V15.1671H10.5501V10.6713H8.72827V9.39578ZM10.8217 10.3997V14.8955H11.7326V10.3997H13.5544V9.66744H8.99992V10.3997H10.8217ZM14.8097 13.1674C14.872 13.5628 15.0199 13.8484 15.2612 14.0168C15.4792 14.1632 15.814 14.2438 16.2733 14.2438C16.6782 14.2438 17.0052 14.1779 17.2387 14.0534C17.4723 13.9216 17.5969 13.7532 17.5969 13.5335C17.5969 13.2553 17.4178 13.0356 17.0752 12.8745C16.9662 12.8233 16.6081 12.7061 15.9931 12.5304C15.3079 12.3254 14.8797 12.1789 14.7162 12.0911C14.2881 11.8494 14.0778 11.498 14.0778 11.0367C14.0778 10.5754 14.2803 10.2093 14.7007 9.94568C15.0899 9.6894 15.5804 9.56493 16.1799 9.56493C16.8339 9.56493 17.3477 9.6894 17.7136 9.94568C18.0384 10.1717 18.2494 10.5048 18.3421 10.9408C18.3604 11.0273 18.3742 11.1178 18.3832 11.2124H17.4801C17.4022 10.8902 17.2543 10.6559 17.0519 10.5168C16.8495 10.3704 16.538 10.3045 16.1332 10.3045C15.7829 10.3045 15.5181 10.3484 15.3313 10.4436C15.0977 10.5534 14.9887 10.7365 14.9887 10.9854C14.9887 11.2051 15.1133 11.3881 15.378 11.5199C15.4948 11.5785 15.814 11.6884 16.3278 11.8421C17.083 12.0618 17.5657 12.2375 17.7837 12.3547C18.2664 12.6256 18.5078 12.999 18.5078 13.4823C18.5078 13.9509 18.3131 14.3243 17.9238 14.5953C17.5346 14.8588 16.9818 14.998 16.2733 14.998C15.5882 14.998 15.051 14.8735 14.6695 14.6245C14.2685 14.3605 14.0223 13.9669 13.9361 13.4391C13.9219 13.3522 13.9121 13.2616 13.9066 13.1674H14.8097ZM16.4047 11.5816C17.1576 11.8006 17.6659 11.983 17.9123 12.1154L17.9167 12.1177C18.4692 12.4278 18.7794 12.8838 18.7794 13.4823C18.7794 14.0403 18.5409 14.4968 18.079 14.8182L18.0762 14.8202C17.6259 15.1251 17.0128 15.2696 16.2733 15.2696C15.5607 15.2696 14.9639 15.141 14.5211 14.852L14.5202 14.8514C13.9685 14.4883 13.6783 13.9186 13.6354 13.1833L13.6186 12.8958H15.0419L15.078 13.1252C15.1334 13.4768 15.2564 13.6812 15.4147 13.7926C15.5685 13.8951 15.8397 13.9721 16.2733 13.9721C16.6517 13.9721 16.9284 13.9101 17.1081 13.8152C17.2863 13.7139 17.3252 13.6224 17.3252 13.5335C17.3252 13.4027 17.2522 13.2579 16.9596 13.1204C16.8751 13.0806 16.5417 12.9697 15.9184 12.7916L15.9152 12.7907C15.571 12.6877 15.2888 12.5986 15.0708 12.5237C14.8581 12.4506 14.691 12.3859 14.5877 12.3304L14.5827 12.3277C14.3356 12.1883 14.1384 12.0094 14.0039 11.7866C13.869 11.5631 13.8062 11.3101 13.8062 11.0367C13.8062 10.4787 14.0594 10.0282 14.5538 9.71713C14.9988 9.42505 15.5447 9.29327 16.1799 9.29327C16.8629 9.29327 17.4398 9.4224 17.8691 9.72294C18.3369 10.0486 18.5932 10.5537 18.6536 11.1866L18.682 11.4841H17.2662L17.216 11.2762C17.1492 10.9998 17.0308 10.8319 16.898 10.7407L16.8926 10.737C16.7605 10.6414 16.5202 10.5761 16.1332 10.5761C15.798 10.5761 15.5845 10.6195 15.4546 10.6856L15.447 10.6895C15.3692 10.7261 15.3273 10.767 15.303 10.806C15.2785 10.8454 15.2604 10.9012 15.2604 10.9854C15.2604 11.075 15.2997 11.1775 15.4991 11.2768C15.5902 11.3224 15.8844 11.4258 16.4047 11.5816Z" fill="#447DFD"/>
<path fill-rule="evenodd" clip-rule="evenodd" d="M12.7459 16.8614C13.051 17.1415 13.0713 17.6159 12.7911 17.9211L11.6042 19.2138L12.7911 20.5066C13.0713 20.8117 13.051 21.2862 12.7459 21.5663C12.4408 21.8465 11.9663 21.8262 11.6862 21.5211L9.56787 19.2138L11.6862 16.9066C11.9663 16.6015 12.4408 16.5812 12.7459 16.8614Z" fill="#404040"/>
<path fill-rule="evenodd" clip-rule="evenodd" d="M19.2541 20.4614C18.949 20.7415 18.9287 21.216 19.2089 21.5211L20.3958 22.8139L19.2089 24.1067C18.9287 24.4118 18.949 24.8862 19.2541 25.1664C19.5592 25.4465 20.0337 25.4262 20.3138 25.1211L22.4321 22.8139L20.3138 20.5066C20.0337 20.2015 19.5592 20.1813 19.2541 20.4614Z" fill="#404040"/>
<path fill-rule="evenodd" clip-rule="evenodd" d="M19.7567 15.9139C20.0804 16.1724 20.1333 16.6443 19.8748 16.968L13.2833 25.2226C13.0249 25.5463 12.5529 25.5992 12.2293 25.3407C11.9056 25.0822 11.8527 24.6103 12.1112 24.2866L18.7027 16.032C18.9611 15.7083 19.433 15.6555 19.7567 15.9139Z" fill="#404040"/>
</svg>
