<svg width="32" height="33" viewBox="0 0 32 33" fill="none" xmlns="http://www.w3.org/2000/svg">
<rect width="32" height="32" transform="translate(0 0.5)" fill="white"/>
<path fill-rule="evenodd" clip-rule="evenodd" d="M6.75 8.5V14.5C6.75 14.5321 6.76151 14.6191 6.89693 14.7614C7.03602 14.9076 7.27274 15.0733 7.62263 15.2288C8.32051 15.539 9.33718 15.75 10.5 15.75C11.6628 15.75 12.6795 15.539 13.3774 15.2288C13.7273 15.0733 13.964 14.9076 14.1031 14.7614C14.2385 14.6192 14.25 14.5321 14.25 14.5V8.5H15.75V14.5C15.75 15.0202 15.5097 15.4593 15.1897 15.7955C14.8733 16.1279 14.451 16.3931 13.9866 16.5996C13.0558 17.0133 11.8225 17.25 10.5 17.25C9.17754 17.25 7.94421 17.0133 7.01341 16.5996C6.54896 16.3931 6.12667 16.1279 5.81034 15.7955C5.49033 15.4593 5.25 15.0202 5.25 14.5V8.5H6.75Z" fill="#447DFD"/>
<path fill-rule="evenodd" clip-rule="evenodd" d="M7.62263 12.2288C8.32051 12.539 9.33718 12.75 10.5 12.75C11.6628 12.75 12.6795 12.539 13.3774 12.2288C13.7273 12.0733 13.964 11.9076 14.1031 11.7614C14.2385 11.6192 14.25 11.5321 14.25 11.5H15.75C15.75 12.0202 15.5097 12.4593 15.1897 12.7955C14.8733 13.1279 14.451 13.3931 13.9866 13.5996C13.0558 14.0133 11.8225 14.25 10.5 14.25C9.17754 14.25 7.94421 14.0133 7.01341 13.5996C6.54896 13.3931 6.12667 13.1279 5.81034 12.7955C5.49033 12.4593 5.25 12.0202 5.25 11.5H6.75C6.75 11.5321 6.76151 11.6191 6.89693 11.7614C7.03602 11.9076 7.27274 12.0733 7.62263 12.2288Z" fill="#447DFD"/>
<path fill-rule="evenodd" clip-rule="evenodd" d="M6.89693 8.23855C6.76151 8.38084 6.75 8.46789 6.75 8.5C6.75 8.5321 6.76151 8.61915 6.89693 8.76144C7.03602 8.9076 7.27274 9.07334 7.62263 9.22885C8.32051 9.53902 9.33718 9.75 10.5 9.75C11.6628 9.75 12.6795 9.53902 13.3774 9.22885C13.7273 9.07334 13.964 8.9076 14.1031 8.76144C14.2385 8.61915 14.25 8.5321 14.25 8.5C14.25 8.46789 14.2385 8.38084 14.1031 8.23855C13.964 8.09239 13.7273 7.92665 13.3774 7.77114C12.6795 7.46098 11.6628 7.25 10.5 7.25C9.33718 7.25 8.3205 7.46098 7.62262 7.77114C7.27274 7.92665 7.03602 8.09239 6.89693 8.23855ZM7.01342 6.40043C7.94422 5.98674 9.17754 5.75 10.5 5.75C11.8225 5.75 13.0558 5.98674 13.9866 6.40043C14.451 6.60685 14.8733 6.87207 15.1897 7.20447C15.5097 7.54074 15.75 7.97982 15.75 8.5C15.75 9.02017 15.5097 9.45926 15.1897 9.79552C14.8733 10.1279 14.451 10.3931 13.9866 10.5996C13.0558 11.0133 11.8225 11.25 10.5 11.25C9.17754 11.25 7.94421 11.0133 7.01341 10.5996C6.54896 10.3931 6.12667 10.1279 5.81034 9.79552C5.49033 9.45926 5.25 9.02018 5.25 8.5C5.25 7.97982 5.49033 7.54073 5.81034 7.20447C6.12667 6.87207 6.54896 6.60685 7.01342 6.40043Z" fill="#447DFD"/>
<path fill-rule="evenodd" clip-rule="evenodd" d="M23 8.25H20V6.75H23C24.5188 6.75 25.75 7.98121 25.75 9.5V12.5H24.25V9.5C24.25 8.80965 23.6903 8.25 23 8.25Z" fill="#404040"/>
<path fill-rule="evenodd" clip-rule="evenodd" d="M7.75 20.5V23.5C7.75 24.1903 8.30965 24.75 9 24.75H12V26.25H9C7.48121 26.25 6.25 25.0188 6.25 23.5V20.5H7.75Z" fill="#404040"/>
<path fill-rule="evenodd" clip-rule="evenodd" d="M20.75 26.5V23.5H22.25V26.5H20.75Z" fill="#404040"/>
<path fill-rule="evenodd" clip-rule="evenodd" d="M18.5 25.75H24.5V27.25H18.5V25.75Z" fill="#404040"/>
<path fill-rule="evenodd" clip-rule="evenodd" d="M16.25 16.75H26.75V24.25H16.25V16.75ZM17.75 18.25V22.75H25.25V18.25H17.75Z" fill="#404040"/>
</svg>
