<svg width="32" height="33" viewBox="0 0 32 33" fill="none" xmlns="http://www.w3.org/2000/svg">
<rect width="32" height="32" transform="translate(0 0.5)" fill="white"/>
<path fill-rule="evenodd" clip-rule="evenodd" d="M6 28V5H20.5946L26 11.2162V28H6ZM24.5 26.5V11.7772L19.9111 6.5H7.5V26.5H24.5Z" fill="#404040"/>
<path fill-rule="evenodd" clip-rule="evenodd" d="M12.7459 16.3614C13.051 16.6415 13.0713 17.1159 12.7911 17.4211L11.6042 18.7138L12.7911 20.0066C13.0713 20.3117 13.051 20.7862 12.7459 21.0663C12.4408 21.3465 11.9663 21.3262 11.6862 21.0211L9.56787 18.7138L11.6862 16.4066C11.9663 16.1015 12.4408 16.0812 12.7459 16.3614Z" fill="#404040"/>
<path fill-rule="evenodd" clip-rule="evenodd" d="M19.2541 19.9614C18.949 20.2415 18.9287 20.716 19.2089 21.0211L20.3958 22.3139L19.2089 23.6067C18.9287 23.9118 18.949 24.3862 19.2541 24.6664C19.5592 24.9465 20.0337 24.9262 20.3138 24.6211L22.4321 22.3139L20.3138 20.0066C20.0337 19.7015 19.5592 19.6813 19.2541 19.9614Z" fill="#404040"/>
<path fill-rule="evenodd" clip-rule="evenodd" d="M19.7567 15.4139C20.0804 15.6724 20.1333 16.1443 19.8748 16.468L13.2833 24.7226C13.0249 25.0463 12.5529 25.0992 12.2293 24.8407C11.9056 24.5822 11.8527 24.1103 12.1112 23.7866L18.7027 15.532C18.9611 15.2083 19.433 15.1555 19.7567 15.4139Z" fill="#404040"/>
<path d="M8.98608 8.85465H13.3462V9.5478H11.5724V14.1763H10.7674V9.5478H8.98608V8.85465Z" fill="#447DFD"/>
<path d="M16.2993 8.75031C16.9254 8.75031 17.4372 8.91179 17.8347 9.23477C18.2222 9.5478 18.4583 9.97512 18.5427 10.5167H17.7527C17.6633 10.154 17.4918 9.88817 17.2384 9.71923C16.99 9.55029 16.672 9.46582 16.2844 9.46582C15.708 9.46582 15.2757 9.66209 14.9875 10.0546C14.7142 10.4074 14.5776 10.8968 14.5776 11.5229C14.5776 12.1589 14.7118 12.6533 14.9801 13.0061C15.2633 13.3788 15.703 13.5651 16.2993 13.5651C16.6918 13.5651 17.0148 13.4682 17.2682 13.2744C17.5365 13.0657 17.7229 12.7527 17.8272 12.3353H18.6173C18.498 12.9564 18.2198 13.4409 17.7825 13.7887C17.3751 14.1167 16.8831 14.2806 16.3068 14.2806C15.4372 14.2806 14.7813 14.0024 14.3391 13.4459C13.9565 12.9738 13.7652 12.3328 13.7652 11.5229C13.7652 10.7279 13.9639 10.0844 14.3615 9.59252C14.8037 9.03104 15.4496 8.75031 16.2993 8.75031Z" fill="#447DFD"/>
<path fill-rule="evenodd" clip-rule="evenodd" d="M8.68604 8.55466H13.6462V9.84782H11.8723V14.4763H10.4674V9.84782H8.68604V8.55466ZM10.7674 9.54782V14.1763H11.5723V9.54782H13.3462V8.85466H8.98604V9.54782H10.7674ZM18.5441 12.6353C18.4005 13.1146 18.1466 13.499 17.7825 13.7887C17.375 14.1167 16.8831 14.2806 16.3067 14.2806C15.4372 14.2806 14.7813 14.0024 14.339 13.4459C13.9564 12.9738 13.7651 12.3329 13.7651 11.5229C13.7651 10.7279 13.9639 10.0845 14.3614 9.59254C14.8036 9.03106 15.4496 8.75032 16.2993 8.75032C16.9253 8.75032 17.4371 8.9118 17.8346 9.23478C18.1476 9.48757 18.3618 9.81489 18.4771 10.2167C18.5046 10.3125 18.5264 10.4125 18.5427 10.5167H17.7526C17.6632 10.154 17.4918 9.88818 17.2384 9.71924C16.9899 9.5503 16.6719 9.46583 16.2843 9.46583C15.708 9.46583 15.2757 9.6621 14.9875 10.0546C14.7142 10.4074 14.5776 10.8969 14.5776 11.5229C14.5776 12.1589 14.7117 12.6533 14.98 13.0061C15.2633 13.3788 15.703 13.5651 16.2993 13.5651C16.6918 13.5651 17.0148 13.4682 17.2682 13.2744C17.5365 13.0658 17.7228 12.7527 17.8272 12.3353H18.6172C18.5973 12.4392 18.5729 12.5392 18.5441 12.6353ZM17.085 13.0369C17.2871 12.8792 17.4438 12.6318 17.5361 12.2626L17.5929 12.0353H18.9803L18.9118 12.3919C18.781 13.0732 18.4702 13.6247 17.9699 14.023C17.5038 14.3979 16.9438 14.5806 16.3067 14.5806C15.3688 14.5806 14.6169 14.277 14.1051 13.6336C13.6673 13.0928 13.4651 12.3781 13.4651 11.5229C13.4651 10.6781 13.6769 9.96304 14.1269 9.40544C14.637 8.75876 15.3777 8.45032 16.2993 8.45032C16.9784 8.45032 17.5617 8.62649 18.0238 9.00195C18.4749 9.36659 18.7444 9.86358 18.8391 10.4705L18.8931 10.8167H17.5176L17.4614 10.5886C17.3856 10.2813 17.2496 10.0873 17.072 9.96886L17.0697 9.96733C16.8836 9.84081 16.6291 9.76583 16.2843 9.76583C15.7836 9.76583 15.4502 9.93136 15.2293 10.2322L15.2247 10.2384C15.0058 10.5211 14.8776 10.9371 14.8776 11.5229C14.8776 12.121 15.0042 12.5423 15.2188 12.8245C15.4302 13.1026 15.7685 13.2651 16.2993 13.2651C16.6409 13.2651 16.8951 13.1817 17.085 13.0369Z" fill="#447DFD"/>
</svg>
