<svg width="32" height="33" viewBox="0 0 32 33" fill="none" xmlns="http://www.w3.org/2000/svg">
<rect width="32" height="32" transform="translate(0 0.5)" fill="white"/>
<path fill-rule="evenodd" clip-rule="evenodd" d="M6 28V5H20.5946L26 11.2162V28H6ZM24.5 26.5V11.7772L19.9111 6.5H7.5V26.5H24.5Z" fill="#404040"/>
<path d="M9 9.16745H13.5545V9.89967H11.7327V14.3955H10.8218V9.89967H9V9.16745Z" fill="#447DFD"/>
<path d="M16.18 9.06494C16.834 9.06494 17.3478 9.18942 17.7137 9.44569C18.103 9.71661 18.3288 10.1413 18.3833 10.7124H17.4802C17.4023 10.3903 17.2544 10.1559 17.052 10.0168C16.8495 9.87038 16.5381 9.80448 16.1333 9.80448C15.7829 9.80448 15.5182 9.84841 15.3314 9.9436C15.0978 10.0534 14.9888 10.2365 14.9888 10.4854C14.9888 10.7051 15.1134 10.8882 15.3781 11.02C15.4949 11.0785 15.8141 11.1884 16.3279 11.3421C17.0831 11.5618 17.5658 11.7375 17.7838 11.8547C18.2665 12.1256 18.5078 12.499 18.5078 12.9823C18.5078 13.4509 18.3132 13.8243 17.9239 14.0953C17.5346 14.3589 16.9819 14.498 16.2734 14.498C15.5883 14.498 15.0511 14.3735 14.6696 14.1246C14.2025 13.817 13.9456 13.3338 13.9066 12.6674H14.8098C14.872 13.0628 15.02 13.3484 15.2613 13.5168C15.4793 13.6633 15.8141 13.7438 16.2734 13.7438C16.6783 13.7438 17.0052 13.6779 17.2388 13.5534C17.4724 13.4216 17.5969 13.2532 17.5969 13.0336C17.5969 12.7553 17.4179 12.5356 17.0753 12.3746C16.9663 12.3233 16.6082 12.2061 15.9931 12.0304C15.308 11.8254 14.8798 11.679 14.7163 11.5911C14.2881 11.3495 14.0779 10.998 14.0779 10.5367C14.0779 10.0754 14.2803 9.70929 14.7008 9.44569C15.09 9.18942 15.5805 9.06494 16.18 9.06494Z" fill="#447DFD"/>
<path fill-rule="evenodd" clip-rule="evenodd" d="M8.72827 8.89578H13.826V10.1713H12.0043V14.6671H10.5501V10.1713H8.72827V8.89578ZM10.8217 9.89965V14.3955H11.7326V9.89965H13.5544V9.16744H8.99992V9.89965H10.8217ZM14.8097 12.6674C14.872 13.0628 15.0199 13.3484 15.2612 13.5168C15.4792 13.6632 15.814 13.7438 16.2733 13.7438C16.6782 13.7438 17.0052 13.6779 17.2387 13.5534C17.4723 13.4216 17.5969 13.2532 17.5969 13.0335C17.5969 12.7553 17.4178 12.5356 17.0752 12.3745C16.9662 12.3233 16.6081 12.2061 15.9931 12.0304C15.3079 11.8254 14.8797 11.6789 14.7162 11.5911C14.2881 11.3494 14.0778 10.998 14.0778 10.5367C14.0778 10.0754 14.2803 9.70928 14.7007 9.44568C15.0899 9.1894 15.5804 9.06493 16.1799 9.06493C16.8339 9.06493 17.3477 9.1894 17.7136 9.44568C18.0384 9.67174 18.2494 10.0048 18.3421 10.4408C18.3604 10.5273 18.3742 10.6178 18.3832 10.7124H17.4801C17.4022 10.3902 17.2543 10.1559 17.0519 10.0168C16.8495 9.87036 16.538 9.80446 16.1332 9.80446C15.7829 9.80446 15.5181 9.8484 15.3313 9.94359C15.0977 10.0534 14.9887 10.2365 14.9887 10.4854C14.9887 10.7051 15.1133 10.8881 15.378 11.0199C15.4948 11.0785 15.814 11.1884 16.3278 11.3421C17.083 11.5618 17.5657 11.7375 17.7837 11.8547C18.2664 12.1256 18.5078 12.499 18.5078 12.9823C18.5078 13.4509 18.3131 13.8243 17.9238 14.0953C17.5346 14.3588 16.9818 14.498 16.2733 14.498C15.5882 14.498 15.051 14.3735 14.6695 14.1245C14.2685 13.8605 14.0223 13.4669 13.9361 12.9391C13.9219 12.8522 13.9121 12.7616 13.9066 12.6674H14.8097ZM16.4047 11.0816C17.1576 11.3006 17.6659 11.483 17.9123 11.6154L17.9167 11.6177C18.4692 11.9278 18.7794 12.3838 18.7794 12.9823C18.7794 13.5403 18.5409 13.9968 18.079 14.3182L18.0762 14.3202C17.6259 14.6251 17.0128 14.7696 16.2733 14.7696C15.5607 14.7696 14.9639 14.641 14.5211 14.352L14.5202 14.3514C13.9685 13.9883 13.6783 13.4186 13.6354 12.6833L13.6186 12.3958H15.0419L15.078 12.6252C15.1334 12.9768 15.2564 13.1812 15.4147 13.2926C15.5685 13.3951 15.8397 13.4721 16.2733 13.4721C16.6517 13.4721 16.9284 13.4101 17.1081 13.3152C17.2863 13.2139 17.3252 13.1224 17.3252 13.0335C17.3252 12.9027 17.2522 12.7579 16.9596 12.6204C16.8751 12.5806 16.5417 12.4697 15.9184 12.2916L15.9152 12.2907C15.571 12.1877 15.2888 12.0986 15.0708 12.0237C14.8581 11.9506 14.691 11.8859 14.5877 11.8304L14.5827 11.8277C14.3356 11.6883 14.1384 11.5094 14.0039 11.2866C13.869 11.0631 13.8062 10.8101 13.8062 10.5367C13.8062 9.97874 14.0594 9.52815 14.5538 9.21713C14.9988 8.92505 15.5447 8.79327 16.1799 8.79327C16.8629 8.79327 17.4398 8.9224 17.8691 9.22294C18.3369 9.54863 18.5932 10.0537 18.6536 10.6866L18.682 10.9841H17.2662L17.216 10.7762C17.1492 10.4998 17.0308 10.3319 16.898 10.2407L16.8926 10.237C16.7605 10.1414 16.5202 10.0761 16.1332 10.0761C15.798 10.0761 15.5845 10.1195 15.4546 10.1856L15.447 10.1895C15.3692 10.2261 15.3273 10.267 15.303 10.306C15.2785 10.3454 15.2604 10.4012 15.2604 10.4854C15.2604 10.575 15.2997 10.6775 15.4991 10.7768C15.5902 10.8224 15.8844 10.9258 16.4047 11.0816Z" fill="#447DFD"/>
<path fill-rule="evenodd" clip-rule="evenodd" d="M12.7459 16.3614C13.051 16.6415 13.0713 17.1159 12.7911 17.4211L11.6042 18.7138L12.7911 20.0066C13.0713 20.3117 13.051 20.7862 12.7459 21.0663C12.4408 21.3465 11.9663 21.3262 11.6862 21.0211L9.56787 18.7138L11.6862 16.4066C11.9663 16.1015 12.4408 16.0812 12.7459 16.3614Z" fill="#404040"/>
<path fill-rule="evenodd" clip-rule="evenodd" d="M19.2541 19.9614C18.949 20.2415 18.9287 20.716 19.2089 21.0211L20.3958 22.3139L19.2089 23.6067C18.9287 23.9118 18.949 24.3862 19.2541 24.6664C19.5592 24.9465 20.0337 24.9262 20.3138 24.6211L22.4321 22.3139L20.3138 20.0066C20.0337 19.7015 19.5592 19.6813 19.2541 19.9614Z" fill="#404040"/>
<path fill-rule="evenodd" clip-rule="evenodd" d="M19.7567 15.4139C20.0804 15.6724 20.1333 16.1443 19.8748 16.468L13.2833 24.7226C13.0249 25.0463 12.5529 25.0992 12.2293 24.8407C11.9056 24.5822 11.8527 24.1103 12.1112 23.7866L18.7027 15.532C18.9611 15.2083 19.433 15.1555 19.7567 15.4139Z" fill="#404040"/>
</svg>
