<svg width="32" height="33" viewBox="0 0 32 33" fill="none" xmlns="http://www.w3.org/2000/svg">
<rect width="32" height="32" transform="translate(0 0.5)" fill="white"/>
<path fill-rule="evenodd" clip-rule="evenodd" d="M8.18042 10.0275C8.18042 7.4888 10.2384 5.43079 12.7771 5.43079C15.3158 5.43079 17.3738 7.4888 17.3738 10.0275C17.3738 12.5662 15.3158 14.6242 12.7771 14.6242C10.2384 14.6242 8.18042 12.5662 8.18042 10.0275ZM12.7771 6.93079C11.0669 6.93079 9.68042 8.31723 9.68042 10.0275C9.68042 11.7377 11.0669 13.1242 12.7771 13.1242C14.4874 13.1242 15.8738 11.7377 15.8738 10.0275C15.8738 8.31723 14.4874 6.93079 12.7771 6.93079Z" fill="#447DFD"/>
<path fill-rule="evenodd" clip-rule="evenodd" d="M21.369 10.0274C21.369 8.9019 20.7689 7.91573 19.8677 7.37267L20.6418 6.08789C21.9748 6.89106 22.869 8.35448 22.869 10.0274C22.869 11.7004 21.9748 13.1638 20.6418 13.967L19.8677 12.6822C20.7689 12.1392 21.369 11.153 21.369 10.0274Z" fill="#404040"/>
<path fill-rule="evenodd" clip-rule="evenodd" d="M11.5349 17.5203H14.0193C15.2222 17.5203 16.1709 17.5203 16.9346 17.5827C17.714 17.6464 18.3666 17.7788 18.9601 18.0812C19.9284 18.5746 20.7157 19.3619 21.2091 20.3302C21.5116 20.9237 21.644 21.5763 21.7076 22.3558C21.77 23.1194 21.77 24.0681 21.77 25.271V26.7137H3.78418L3.78418 25.271C3.78417 24.0681 3.78417 23.1194 3.84657 22.3558C3.91025 21.5763 4.04266 20.9237 4.34508 20.3302C4.83846 19.3619 5.62573 18.5746 6.59407 18.0812C7.18762 17.7788 7.84019 17.6464 8.61965 17.5827C9.38333 17.5203 10.332 17.5203 11.5349 17.5203ZM7.27504 19.4177C6.58897 19.7673 6.03117 20.3251 5.6816 21.0112C5.50487 21.358 5.39769 21.7912 5.34158 22.4779C5.28615 23.1564 5.28424 24.0175 5.28418 25.2137H20.27C20.27 24.0175 20.268 23.1564 20.2126 22.4779C20.1565 21.7912 20.0493 21.358 19.8726 21.0112C19.5231 20.3251 18.9652 19.7673 18.2791 19.4177M7.27504 19.4177C7.6219 19.241 8.0551 19.1338 8.74179 19.0777C9.43724 19.0209 10.3247 19.0203 11.5681 19.0203H13.9861C15.2295 19.0203 16.117 19.0209 16.8124 19.0777C17.4991 19.1338 17.9323 19.241 18.2791 19.4177" fill="#404040"/>
<path fill-rule="evenodd" clip-rule="evenodd" d="M24.4552 18.0813C25.4235 18.5747 26.2108 19.3619 26.7042 20.3303C27.0066 20.9238 27.139 21.5764 27.2027 22.3559C27.2651 23.1195 27.2651 24.0682 27.2651 25.2711V25.9638H25.7651V25.3044C25.7651 24.0609 25.7645 23.1735 25.7077 22.478C25.6516 21.7913 25.5444 21.3581 25.3677 21.0113M24.4552 18.0813L23.7742 19.4178ZM23.7742 19.4178C24.4603 19.7674 25.0181 20.3252 25.3677 21.0113Z" fill="#404040"/>
</svg>
