<svg width="40" height="23" viewBox="0 0 40 23" fill="none" xmlns="http://www.w3.org/2000/svg">
<g id="Frame" clip-path="url(#clip0_1516_19047)">
<path id="Vector" d="M16.9 0.05L0 22.61H5.69L9.34 17.73H16.9V22.58H21.09V0H16.9V0.05ZM12.71 13.23L16.9 7.63V13.23H12.71Z" fill="#447DFD"/>
<path id="Vector_2" d="M39.6599 0H34.9199V22.59H39.6599V0Z" fill="#447DFD"/>
<path id="Vector_3" d="M26.7699 0.0900879H22.3599V4.34009H26.1799C27.6899 4.34009 28.9099 5.56009 28.9099 7.07009C28.9099 8.58009 27.6899 9.80009 26.1799 9.80009H22.3599V14.0501H26.7699C30.6299 14.0501 33.7499 10.9201 33.7499 7.07009C33.7499 3.22009 30.6299 0.0900879 26.7699 0.0900879Z" fill="#447DFD"/>
</g>
<defs>
<clipPath id="clip0_1516_19047">
<rect width="39.66" height="22.61" fill="white"/>
</clipPath>
</defs>
</svg>
