<svg width="145" height="23" viewBox="0 0 145 23" fill="none" xmlns="http://www.w3.org/2000/svg">
<g clip-path="url(#clip0_1516_19046)">
<path d="M16.9 0.05L0 22.61H5.69L9.34 17.73H16.9V22.58H21.09V0H16.9V0.05ZM12.71 13.23L16.9 7.63V13.23H12.71Z" fill="#447DFD"/>
<path d="M39.6599 0H34.9199V22.59H39.6599V0Z" fill="#447DFD"/>
<path d="M26.7699 0.0900879H22.3599V4.34009H26.1799C27.6899 4.34009 28.9099 5.56009 28.9099 7.07009C28.9099 8.58009 27.6899 9.80009 26.1799 9.80009H22.3599V14.0501H26.7699C30.6299 14.0501 33.7499 10.9201 33.7499 7.07009C33.7499 3.22009 30.6299 0.0900879 26.7699 0.0900879Z" fill="#447DFD"/>
</g>
<path d="M120.46 21.2899H117.49L115.18 15.2299H106.84L104.64 21.2899H101.86L109.5 1.38989H112.34L120.46 21.2899ZM114.41 13.1399L110.91 3.90989L107.57 13.1399H114.41Z" fill="white"/>
<path d="M122.66 1.37988H130.09C131.72 1.37988 133.08 1.52988 134.18 1.82988C135.28 2.12988 136.15 2.78988 136.79 3.79988C137.43 4.80988 137.75 5.93988 137.75 7.18988C137.75 9.19988 137.11 10.7199 135.84 11.7699C134.56 12.8099 132.72 13.3299 130.3 13.3299H125.29V21.2899H122.66V1.37988ZM125.29 10.9699H130.33C132.02 10.9699 133.23 10.6499 133.95 10.0199C134.67 9.38988 135.03 8.46988 135.03 7.27988C135.03 6.47988 134.83 5.77988 134.43 5.15988C134.03 4.53988 133.53 4.15988 132.92 3.98988C132.31 3.82988 131.43 3.74988 130.28 3.74988H125.3V10.9699H125.29Z" fill="white"/>
<path d="M144.18 21.2899H141.53V1.37988H144.18V21.2899Z" fill="white"/>
<path d="M54.9202 13.53H58.3502C57.5902 16.38 56.6102 19.14 55.3902 21.82H51.6602C53.1002 18.93 54.1802 16.16 54.9202 13.53ZM59.8802 19.5H62.2702V11.85H52.7702L54.2502 0.64C60.3902 0.65 66.7402 0.43 73.2902 0V3.04C68.1702 3.43 62.7702 3.66 57.0902 3.71L56.4002 8.89H62.2702V5.46H65.4802V8.89H74.2902V11.85H65.4902V22.66H59.8902V19.5H59.8802ZM71.4602 13.53C72.2002 16.16 73.2902 18.93 74.7202 21.82H70.9902C69.7702 19.14 68.7802 16.37 68.0302 13.53H71.4602Z" fill="white"/>
<path d="M77.9903 7.88997C78.4403 6.67997 78.8003 5.38997 79.0603 4.02997H76.7603V0.819971H85.8903V4.02997H82.3103C82.0103 5.75997 81.6103 7.30997 81.1003 8.66997H85.1503V21.43H77.6203V11.56H76.2603C76.9603 10.32 77.5403 9.09997 77.9903 7.88997ZM80.4403 18.29H82.3403V11.8H80.4403V18.29ZM87.5803 17.85C87.8903 16.27 88.0603 14.49 88.0703 12.49H86.0003V9.32997H88.0703V3.87997H86.7103V0.719971H98.5303V3.87997H97.0503V9.33997H99.1703V12.5H97.0503V22.67H93.9103V12.49H91.1903C91.1703 14.38 91.0303 16.14 90.7703 17.76C90.5103 19.38 90.0903 21.01 89.5103 22.66H85.9303C86.7203 21.03 87.2703 19.43 87.5803 17.85ZM93.9203 9.32997V3.87997H91.2003V9.33997H93.9203V9.32997Z" fill="white"/>
<defs>
<clipPath id="clip0_1516_19046">
<rect width="39.66" height="22.61" fill="white"/>
</clipPath>
</defs>
</svg>
