<?xml version="1.0" standalone="no"?><!DOCTYPE svg PUBLIC "-//W3C//DTD SVG 1.1//EN" "http://www.w3.org/Graphics/SVG/1.1/DTD/svg11.dtd"><svg t="1682585629649" class="icon" viewBox="0 0 1291 1024" version="1.1" xmlns="http://www.w3.org/2000/svg" p-id="26088" width="60.515625" height="48" xmlns:xlink="http://www.w3.org/1999/xlink"><path d="M667.435857 518.52749c-3.059761 0-6.323506-0.815936-9.179283-2.447809L493.641434 421.023108c-5.711554-3.263745-9.179283-9.179283-9.179283-15.706773v-190.113148c0-6.52749 3.467729-12.443028 9.179283-15.706773l164.61514-95.056573c5.711554-3.263745 12.647012-3.263745 18.154581 0l164.61514 95.056573c5.711554 3.263745 9.179283 9.179283 9.179283 15.706773v190.113148c0 6.52749-3.467729 12.443028-9.179283 15.706773L676.615139 516.079681c-2.855777 1.427888-5.915538 2.447809-9.179282 2.447809z m-146.256574-123.818327l146.256574 84.449403 146.256573-84.449403v-168.898804l-146.256573-84.449403-146.256574 84.449403v168.898804z m0 0" p-id="26089" fill="#bfbfbf"></path><path d="M666.415936 302.100398c-1.631873 0-3.059761-0.407968-4.487649-1.223904l-100.768128-56.911554c-2.855777-1.631873-4.691633-4.691633-4.691633-7.955378s1.631873-6.323506 4.487649-7.955379l101.788048-59.155378c2.855777-1.631873 6.323506-1.631873 9.179283 0l100.768127 57.931474c2.855777 1.631873 4.487649 4.691633 4.48765 7.955378s-1.835857 6.323506-4.691634 7.955379l-101.788047 57.931474c-1.223904 1.01992-2.651793 1.427888-4.283666 1.427888z m-82.409561-66.090836l82.409561 46.508366 83.429482-47.528287-82.409561-47.528286-83.429482 48.548207z m-111.579283 613.176095c-3.059761 0-6.323506-0.815936-9.179283-2.447808l-164.61514-95.056574c-5.711554-3.263745-9.179283-9.179283-9.179283-15.706773v-190.113147c0-6.52749 3.467729-12.443028 9.179283-15.706773l164.61514-95.056574c5.711554-3.263745 12.647012-3.263745 18.154581 0l164.61514 95.056574c5.711554 3.263745 9.179283 9.179283 9.179283 15.706773v190.113147c0 6.52749-3.467729 12.443028-9.179283 15.706773L481.40239 846.737849c-2.651793 1.631873-5.711554 2.447809-8.975298 2.447808z m-146.256574-123.614342l146.256574 84.449402 146.256573-84.449402v-168.898805l-146.256573-84.449402-146.256574 84.449402v168.898805z m0 0" p-id="26090" fill="#bfbfbf"></path><path d="M471.407171 632.96255c-1.631873 0-3.059761-0.407968-4.487649-1.223905l-100.768128-56.911553c-2.855777-1.631873-4.691633-4.691633-4.691633-7.955379s1.631873-6.323506 4.487649-7.955378l101.788048-59.155379c2.855777-1.631873 6.323506-1.631873 9.179283 0l100.768128 58.135458c2.855777 1.631873 4.487649 4.691633 4.487649 7.955379s-1.835857 6.323506-4.691634 7.955378l-101.788047 57.931474c-1.223904 0.815936-2.651793 1.223904-4.283666 1.223905z m-82.409561-66.090837l82.409561 46.508367 83.429482-47.528287-82.409561-47.528287-83.429482 48.548207z m472.631075 66.090837c-1.631873 0-3.059761-0.407968-4.487649-1.223905l-100.768128-56.911553c-2.855777-1.631873-4.691633-4.691633-4.691633-7.955379s1.631873-6.323506 4.487649-7.955378l101.788048-59.155379c2.855777-1.631873 6.323506-1.631873 9.179283 0l100.768127 58.135458c2.855777 1.631873 4.487649 4.691633 4.48765 7.955379s-1.835857 6.323506-4.691634 7.955378l-101.788047 57.931474c-1.01992 0.815936-2.651793 1.223904-4.283666 1.223905z m-82.205577-66.090837l82.409561 46.508367 83.429482-47.528287-82.409561-47.528287-83.429482 48.548207z m0 0" p-id="26091" fill="#bfbfbf"></path><path d="M861.220717 849.185657c-3.059761 0-6.323506-0.815936-9.179283-2.447808L687.426295 751.885259c-5.711554-3.263745-9.179283-9.179283-9.179283-15.706773v-190.113147c0-6.52749 3.467729-12.443028 9.179283-15.706773l164.615139-95.056574c5.711554-3.263745 12.647012-3.263745 18.154582 0l164.615139 95.056574c5.711554 3.263745 9.179283 9.179283 9.179283 15.706773v190.113147c0 6.52749-3.467729 12.443028-9.179283 15.706773l-164.615139 95.056574c-2.651793 1.427888-5.915538 2.243825-8.975299 2.243824z m-146.460558-123.614342l146.256574 84.449402 146.256574-84.449402v-168.898805l-146.256574-84.449402-146.256574 84.449402v168.898805z m0 0" p-id="26092" fill="#bfbfbf"></path></svg>