<?xml version="1.0" standalone="no"?><!DOCTYPE svg PUBLIC "-//W3C//DTD SVG 1.1//EN" "http://www.w3.org/Graphics/SVG/1.1/DTD/svg11.dtd"><svg t="1682585560161" class="icon" viewBox="0 0 1024 1024" version="1.1" xmlns="http://www.w3.org/2000/svg" p-id="22692" width="48" height="48" xmlns:xlink="http://www.w3.org/1999/xlink"><path d="M903.04 823.68l-46.72-33.28a112.64 112.64 0 0 0-128 0 48 48 0 0 1-56.32 0 99.2 99.2 0 0 0-18.56-8.96l-17.92-227.2H768a32 32 0 0 0 32-32 32 32 0 0 0-32-32H631.04l-8.96-128h72.96a32 32 0 0 0 0-64H617.6l-8.96-128A32 32 0 0 0 576 142.72H448a32 32 0 0 0-32 29.44l-8.96 128H328.96a32 32 0 0 0 0 64h72.96l-8.96 128H256a32 32 0 0 0-32 32 32 32 0 0 0 32 32h132.48l-16 227.2a99.2 99.2 0 0 0-18.56 8.96 48 48 0 0 1-56.32 0 112.64 112.64 0 0 0-128 0l-46.72 33.28a31.36 31.36 0 0 0-7.68 44.16 31.36 31.36 0 0 0 26.24 13.44 33.28 33.28 0 0 0 18.56-5.76l46.72-32.64a47.36 47.36 0 0 1 55.68 0 113.28 113.28 0 0 0 128 0 47.36 47.36 0 0 1 55.68 0 113.28 113.28 0 0 0 128 0 47.36 47.36 0 0 1 55.68 0 113.28 113.28 0 0 0 128 0 48 48 0 0 1 56.32 0l46.08 32.64a32 32 0 0 0 44.8-7.68 31.36 31.36 0 0 0-1.92-46.08zM477.44 206.72h69.12l7.04 94.08h-83.2zM465.92 364.8h92.16l8.96 128H456.96z m74.24 425.6a49.28 49.28 0 0 1-56.32 0 104.96 104.96 0 0 0-46.72-17.92l15.36-218.24h119.04l15.36 218.24a104.96 104.96 0 0 0-46.72 17.92z" fill="#bfbfbf" p-id="22693"></path></svg>