<?xml version="1.0" standalone="no"?><!DOCTYPE svg PUBLIC "-//W3C//DTD SVG 1.1//EN" "http://www.w3.org/Graphics/SVG/1.1/DTD/svg11.dtd"><svg t="1682585603238" class="icon" viewBox="0 0 1024 1024" version="1.1" xmlns="http://www.w3.org/2000/svg" p-id="24061" width="48" height="48" xmlns:xlink="http://www.w3.org/1999/xlink"><path d="M928 733.19v-0.32c-32.87-0.77-65.29 7.86-93.43 24.86l40.23-126.69c3.91-12.19-2.53-25.28-14.57-29.61l-57.8-20.75-25.34-179.26c-1.65-11.69-11.63-20.39-23.44-20.43h-55.84V233.03c0-19.21-15.63-34.84-34.84-34.84H362.03c-19.21 0-34.84 15.63-34.84 34.84V381h-57.17c-12.04-0.28-22.39 8.5-24.07 20.43l-24.7 179.26-57.96 20.75c-12.04 4.34-18.48 17.43-14.57 29.61l40.38 126.69a174.112 174.112 0 0 0-93.59-24.86c-13.12 0-23.75 10.63-23.75 23.75s10.63 23.75 23.75 23.75c33.03-0.72 65.2 10.53 90.58 31.67a320.454 320.454 0 0 0 34.68 21.7 175.87 175.87 0 0 0 82.82 19c42.75 0.66 84.38-13.69 117.66-40.54 25.34-21 57.36-32.23 90.26-31.67 33.08-0.72 65.3 10.53 90.74 31.67a183.834 183.834 0 0 0 117.66 40.54c7.62 0.04 15.23-0.33 22.8-1.11a165.06 165.06 0 0 0 60.02-17.58 319.4 319.4 0 0 0 34.68-21.69 137.13 137.13 0 0 1 90.58-31.67c13.12 0 23.75-10.63 23.75-23.75s-10.62-23.76-23.74-23.76zM364.81 235.81H660.2V378.2H364.81V235.81zM291.1 428h442.3l17.74 126.69-95.01-26.44-135.4-48.3a23.18 23.18 0 0 0-15.84 0l-136.03 48.3-95.49 26.44L291.1 428z m481.89 367.29l-3.01 1.27-5.06 1.74-8.55 2.53-5.22 1.27c-3.3 0.65-6.63 1.13-9.98 1.9h-20.59c-32.89 0.66-65.1-10.08-90.74-30.72a183.837 183.837 0 0 0-117.82-40.38c-42.61-0.57-84.1 13.71-117.34 40.38-25.43 21.05-57.57 32.28-90.58 31.72h-20.6c-3.38-0.05-6.71-0.53-9.98-1.48l-5.22-1.27-8.55-2.53-5.07-1.74-3.01-1.27-50.2-158.52 310.86-110.85 310.7 110.85-50.04 157.1z" fill="#bfbfbf" p-id="24062"></path></svg>