<?xml version="1.0" standalone="no"?><!DOCTYPE svg PUBLIC "-//W3C//DTD SVG 1.1//EN" "http://www.w3.org/Graphics/SVG/1.1/DTD/svg11.dtd"><svg t="1682585547228" class="icon" viewBox="0 0 1024 1024" version="1.1" xmlns="http://www.w3.org/2000/svg" p-id="22349" width="48" height="48" xmlns:xlink="http://www.w3.org/1999/xlink"><path d="M925.184 821.76c-33.792 0-62.976 16.896-82.432 41.472L757.76 790.528c40.96-53.76 62.976-119.296 62.976-186.88 0-167.424-133.12-303.104-297.984-307.712v-92.16c52.224-5.632 92.16-49.152 92.16-101.888 0-55.808-46.08-101.888-101.888-101.888-55.296 0-101.376 46.08-101.376 101.888 0 52.736 39.936 96.256 92.16 101.888v92.16c-164.864 7.168-297.984 140.288-297.984 307.712 0 70.144 24.064 135.68 62.976 186.88L184.32 860.672c-19.456-24.064-48.64-41.472-82.432-41.472C46.08 819.2 0 865.28 0 921.088c0 55.808 46.08 101.888 101.888 101.888 55.808 0 101.888-46.08 101.888-101.888 0-14.336-2.56-29.184-9.728-43.52l87.04-72.704c55.808 62.976 138.24 104.448 229.888 104.448s174.592-41.472 229.888-104.448l87.04 72.704c-4.608 12.288-9.728 26.624-9.728 43.52 0 55.808 46.08 101.888 101.888 101.888 55.808 0 101.888-46.08 101.888-101.888 7.68-53.248-38.4-99.328-96.768-99.328z" fill="#bfbfbf" p-id="22350"></path></svg>